G04 DipTrace 3.0.0.1*
G04 BottomMask.gbr*
%MOMM*%
G04 #@! TF.FileFunction,Soldermask,Bot*
G04 #@! TF.Part,Single*
%AMOUTLINE0*5,1,4,0,0,2.30517,-135.0*%
%ADD32C,1.63*%
%ADD46C,1.8*%
%ADD48R,1.8X1.8*%
%ADD68OUTLINE0*%
%FSLAX35Y35*%
G04*
G71*
G90*
G75*
G01*
G04 BotMask*
%LPD*%
D48*
X2633333Y2588333D3*
D46*
X2433333D3*
D48*
X3874000Y2583333D3*
D46*
X3674000D3*
X3474000D3*
X3274000D3*
D48*
X1589000Y8007667D3*
D46*
Y7357667D3*
D68*
X594333Y2055000D3*
D32*
X340333D3*
X594333Y2309000D3*
X340333D3*
X594333Y2563000D3*
X340333D3*
X594333Y2817000D3*
X340333D3*
X594333Y3071000D3*
X340333D3*
X594333Y3325000D3*
X340333D3*
X594333Y3579000D3*
X340333D3*
X594333Y3833000D3*
X340333D3*
X594333Y4087000D3*
X340333D3*
X594333Y4341000D3*
X340333D3*
X594333Y4595000D3*
X340333D3*
X594333Y4849000D3*
X340333D3*
X594333Y5103000D3*
X340333D3*
X594333Y5357000D3*
X340333D3*
X594333Y5611000D3*
X340333D3*
X594333Y5865000D3*
X340333D3*
X594333Y6119000D3*
X340333D3*
X594333Y6373000D3*
X340333D3*
X594333Y6627000D3*
X340333D3*
X594333Y6881000D3*
X340333D3*
X594333Y7135000D3*
X340333D3*
X594333Y7389000D3*
X340333D3*
X594333Y7643000D3*
X340333D3*
D68*
X5420333Y2055000D3*
D32*
X5166333D3*
X5420333Y2309000D3*
X5166333D3*
X5420333Y2563000D3*
X5166333D3*
X5420333Y2817000D3*
X5166333D3*
X5420333Y3071000D3*
X5166333D3*
X5420333Y3325000D3*
X5166333D3*
X5420333Y3579000D3*
X5166333D3*
X5420333Y3833000D3*
X5166333D3*
X5420333Y4087000D3*
X5166333D3*
X5420333Y4341000D3*
X5166333D3*
X5420333Y4595000D3*
X5166333D3*
X5420333Y4849000D3*
X5166333D3*
X5420333Y5103000D3*
X5166333D3*
X5420333Y5357000D3*
X5166333D3*
X5420333Y5611000D3*
X5166333D3*
X5420333Y5865000D3*
X5166333D3*
X5420333Y6119000D3*
X5166333D3*
X5420333Y6373000D3*
X5166333D3*
X5420333Y6627000D3*
X5166333D3*
X5420333Y6881000D3*
X5166333D3*
X5420333Y7135000D3*
X5166333D3*
X5420333Y7389000D3*
X5166333D3*
X5420333Y7643000D3*
X5166333D3*
M02*
