G04 DipTrace 3.0.0.1*
G04 Bottom.gbr*
%MOMM*%
G04 #@! TF.FileFunction,Copper,L2,Bot*
G04 #@! TF.Part,Single*
%AMOUTLINE0*5,1,4,0,0,2.30517,-135.0*%
G04 #@! TA.AperFunction,Conductor*
%ADD13C,0.8*%
%ADD14C,0.6*%
%ADD15C,0.3*%
%ADD16C,0.4*%
%ADD17C,0.152*%
G04 #@! TA.AperFunction,CopperBalancing*
%ADD18C,0.33*%
G04 #@! TA.AperFunction,ComponentPad*
%ADD26R,1.6X1.6*%
%ADD27C,1.6*%
%ADD32C,1.63*%
G04 #@! TA.AperFunction,ViaPad*
%ADD34C,1.016*%
G04 #@! TA.AperFunction,ComponentPad*
%ADD68OUTLINE0*%
%FSLAX35Y35*%
G04*
G71*
G90*
G75*
G01*
G04 Bottom*
%LPD*%
X3874000Y2583333D2*
D16*
Y2517333D1*
X3793333Y2436667D1*
X3069000D1*
X2870333Y2635333D1*
Y3858507D1*
Y3987333D1*
X2348333Y4509333D1*
X3041333Y3737667D2*
X2991173D1*
X2870333Y3858507D1*
X5166333Y2563000D2*
D13*
X4708333D1*
X4491333Y2346000D1*
X2875667D1*
X2633333Y2588333D1*
X5420333Y2817000D2*
D14*
X5166333D1*
X4987000D1*
X4747000Y3057000D1*
Y7863667D1*
X4601667Y8009000D1*
X2890667D1*
X2882333Y8000667D1*
X860000Y6565000D2*
D17*
Y4378000D1*
X807000Y4325000D1*
X610333D1*
X594333Y4341000D1*
X1528333Y3019667D2*
D15*
Y5664333D1*
X5166333Y4595000D2*
D17*
X5163333D1*
X4936333Y4822000D1*
X4093667D2*
X3809333D1*
X3472667Y4485333D1*
Y2584667D1*
X3474000Y2583333D1*
X5420333Y4595000D2*
X5367667D1*
X5248000Y4475333D1*
X5072667D1*
X4923333Y4624667D1*
X4098000Y4620333D2*
X3840000D1*
X3677333Y4457667D1*
Y2586667D1*
X3674000Y2583333D1*
D34*
X2348333Y4509333D3*
X3041333Y3737667D3*
X2882333Y8000667D3*
X860000Y6565000D3*
X1528333Y3019667D3*
Y5664333D3*
X4936333Y4822000D3*
X4093667D3*
X4923333Y4624667D3*
X4098000Y4620333D3*
X1153590Y8636500D2*
D18*
X4599293D1*
X1041313Y8603833D2*
X4712473D1*
X959200Y8571167D2*
X4795230D1*
X892233Y8538500D2*
X4862647D1*
X834160Y8505833D2*
X4921043D1*
X781760Y8473167D2*
X4973573D1*
X736257Y8440500D2*
X5020107D1*
X694620Y8407833D2*
X5061743D1*
X656013Y8375167D2*
X5101383D1*
X621723Y8342500D2*
X5135543D1*
X588787Y8309833D2*
X5169253D1*
X559720Y8277167D2*
X5198257D1*
X531683Y8244500D2*
X5227260D1*
X506480Y8211833D2*
X5252203D1*
X482633Y8179167D2*
X5277017D1*
X460333Y8146500D2*
X5298930D1*
X440223Y8113833D2*
X1454883D1*
X1723097D2*
X5319880D1*
X420307Y8081167D2*
X1454883D1*
X1723097D2*
X2817037D1*
X4641343D2*
X5339473D1*
X403613Y8048500D2*
X1454883D1*
X1723097D2*
X2789383D1*
X4679757D2*
X5357067D1*
X386983Y8015833D2*
X1454883D1*
X1723097D2*
X2778557D1*
X4712433D2*
X5374600D1*
X372030Y7983167D2*
X1454883D1*
X1723097D2*
X2778943D1*
X4745110D2*
X5389100D1*
X358497Y7950500D2*
X1454883D1*
X1723097D2*
X2790673D1*
X4777790D2*
X5403540D1*
X345027Y7917833D2*
X1454883D1*
X1723097D2*
X2820193D1*
X2944483D2*
X4575253D1*
X4810273D2*
X5416687D1*
X334327Y7885167D2*
X1454883D1*
X1723097D2*
X4607930D1*
X4828190D2*
X5428160D1*
X323757Y7852500D2*
X4640543D1*
X4831093D2*
X5439633D1*
X314023Y7819833D2*
X4662907D1*
X4831093D2*
X5448850D1*
X306290Y7787167D2*
X4662907D1*
X4831093D2*
X5457550D1*
X414893Y7754500D2*
X519797D1*
X668903D2*
X4662907D1*
X4831093D2*
X5091780D1*
X5240887D2*
X5345790D1*
X449890Y7721833D2*
X484733D1*
X703900D2*
X4662907D1*
X4831093D2*
X5056780D1*
X5275883D2*
X5310790D1*
X721627Y7689167D2*
X4662907D1*
X4831093D2*
X5039057D1*
X729230Y7656500D2*
X4662907D1*
X4831093D2*
X5031387D1*
X728587Y7623833D2*
X4662907D1*
X4831093D2*
X5032097D1*
X719370Y7591167D2*
X4662907D1*
X4831093D2*
X5041313D1*
X445443Y7558500D2*
X489180D1*
X699453D2*
X4662907D1*
X4831093D2*
X5061230D1*
X5271437D2*
X5315237D1*
X405097Y7525833D2*
X529530D1*
X659107D2*
X4662907D1*
X4831093D2*
X5101577D1*
X5231087D2*
X5355520D1*
X425207Y7493167D2*
X509420D1*
X679217D2*
X4662907D1*
X4831093D2*
X5081467D1*
X5251197D2*
X5335413D1*
X454983Y7460500D2*
X479707D1*
X708993D2*
X1504833D1*
X1673147D2*
X4662907D1*
X4831093D2*
X5051690D1*
X5280973D2*
X5305700D1*
X724140Y7427833D2*
X1475313D1*
X1702730D2*
X4662907D1*
X4831093D2*
X5036543D1*
X729810Y7395167D2*
X1460360D1*
X1717620D2*
X4662907D1*
X4831093D2*
X5030870D1*
X727297Y7362500D2*
X1454947D1*
X1723033D2*
X4662907D1*
X4831093D2*
X5033383D1*
X462007Y7329833D2*
X472710D1*
X716017D2*
X1457847D1*
X1720133D2*
X4662907D1*
X4831093D2*
X5044663D1*
X5288000D2*
X5298737D1*
X438870Y7297167D2*
X495757D1*
X692880D2*
X1469707D1*
X1708273D2*
X4662907D1*
X4831093D2*
X5067737D1*
X5264927D2*
X5321747D1*
X388467Y7264500D2*
X546223D1*
X642477D2*
X1493877D1*
X1684103D2*
X4662907D1*
X4831093D2*
X5118203D1*
X5214460D2*
X5372213D1*
X433843Y7231833D2*
X500847D1*
X687787D2*
X1549950D1*
X1628093D2*
X4662907D1*
X4831093D2*
X5072830D1*
X5259833D2*
X5326840D1*
X459367Y7199167D2*
X475303D1*
X713377D2*
X4662907D1*
X4831093D2*
X5047307D1*
X5285357D2*
X5301317D1*
X726137Y7166500D2*
X4662907D1*
X4831093D2*
X5034543D1*
X729940Y7133833D2*
X4662907D1*
X4831093D2*
X5030743D1*
X725557Y7101167D2*
X4662907D1*
X4831093D2*
X5035123D1*
X458013Y7068500D2*
X476627D1*
X712023D2*
X4662907D1*
X4831093D2*
X5048660D1*
X5284003D2*
X5302670D1*
X431263Y7035833D2*
X503427D1*
X685210D2*
X4662907D1*
X4831093D2*
X5075407D1*
X5257257D2*
X5329417D1*
X394460Y7003167D2*
X540230D1*
X648470D2*
X4662907D1*
X4831093D2*
X5112210D1*
X5220453D2*
X5366220D1*
X441060Y6970500D2*
X493563D1*
X695070D2*
X4662907D1*
X4831093D2*
X5065547D1*
X5267117D2*
X5319557D1*
X717113Y6937833D2*
X4662907D1*
X4831093D2*
X5043567D1*
X727747Y6905167D2*
X4662907D1*
X4831093D2*
X5032933D1*
X729683Y6872500D2*
X4662907D1*
X4831093D2*
X5031000D1*
X723367Y6839833D2*
X4662907D1*
X4831093D2*
X5037253D1*
X453437Y6807167D2*
X481253D1*
X707447D2*
X4662907D1*
X4831093D2*
X5053237D1*
X5279427D2*
X5307247D1*
X422177Y6774500D2*
X512513D1*
X676187D2*
X4662907D1*
X4831093D2*
X5084497D1*
X5248167D2*
X5338507D1*
X409350Y6741833D2*
X525277D1*
X663360D2*
X4662907D1*
X4831093D2*
X5097323D1*
X5235407D2*
X5351267D1*
X447377Y6709167D2*
X487313D1*
X701323D2*
X4662907D1*
X4831093D2*
X5059293D1*
X5273370D2*
X5313303D1*
X720337Y6676500D2*
X4662907D1*
X4831093D2*
X5040347D1*
X728910Y6643833D2*
X792563D1*
X927423D2*
X4662907D1*
X4831093D2*
X5031773D1*
X728973Y6611167D2*
X766200D1*
X953850D2*
X4662907D1*
X4831093D2*
X5031643D1*
X720723Y6578500D2*
X755953D1*
X964033D2*
X4662907D1*
X4831093D2*
X5039893D1*
X448150Y6545833D2*
X486540D1*
X702160D2*
X756920D1*
X963067D2*
X4662907D1*
X4831093D2*
X5058520D1*
X5274143D2*
X5312530D1*
X411090Y6513167D2*
X523600D1*
X665100D2*
X769293D1*
X950690D2*
X4662907D1*
X4831093D2*
X5095583D1*
X5237083D2*
X5349590D1*
X420757Y6480500D2*
X513867D1*
X674767D2*
X798300D1*
X921753D2*
X4662907D1*
X4831093D2*
X5085913D1*
X5246813D2*
X5339860D1*
X452790Y6447833D2*
X481897D1*
X706737D2*
X798300D1*
X921753D2*
X4662907D1*
X4831093D2*
X5053880D1*
X5278783D2*
X5307890D1*
X723043Y6415167D2*
X798300D1*
X921753D2*
X4662907D1*
X4831093D2*
X5037640D1*
X729617Y6382500D2*
X798300D1*
X921753D2*
X4662907D1*
X4831093D2*
X5031063D1*
X727940Y6349833D2*
X798300D1*
X921753D2*
X4662907D1*
X4831093D2*
X5032740D1*
X717563Y6317167D2*
X798300D1*
X921753D2*
X4662907D1*
X4831093D2*
X5043053D1*
X442027Y6284500D2*
X492663D1*
X695973D2*
X798300D1*
X921753D2*
X4662907D1*
X4831093D2*
X5064643D1*
X5268020D2*
X5318653D1*
X396780Y6251833D2*
X537843D1*
X650790D2*
X798300D1*
X921753D2*
X4662907D1*
X4831093D2*
X5109890D1*
X5222773D2*
X5363837D1*
X430103Y6219167D2*
X504587D1*
X684113D2*
X798300D1*
X921753D2*
X4662907D1*
X4831093D2*
X5076567D1*
X5256097D2*
X5330577D1*
X457433Y6186500D2*
X477240D1*
X711440D2*
X798300D1*
X921753D2*
X4662907D1*
X4831093D2*
X5049240D1*
X5283423D2*
X5303250D1*
X725300Y6153833D2*
X798300D1*
X921753D2*
X4662907D1*
X4831093D2*
X5035383D1*
X729940Y6121167D2*
X798300D1*
X921753D2*
X4662907D1*
X4831093D2*
X5030743D1*
X726393Y6088500D2*
X798300D1*
X921753D2*
X4662907D1*
X4831093D2*
X5034287D1*
X459880Y6055833D2*
X474770D1*
X713890D2*
X798300D1*
X921753D2*
X4662907D1*
X4831093D2*
X5046790D1*
X5285873D2*
X5300737D1*
X434873Y6023167D2*
X499817D1*
X688883D2*
X798300D1*
X921753D2*
X4662907D1*
X4831093D2*
X5071800D1*
X5260867D2*
X5325810D1*
X385567Y5990500D2*
X549123D1*
X639577D2*
X798300D1*
X921753D2*
X4662907D1*
X4831093D2*
X5121107D1*
X5211560D2*
X5375117D1*
X437903Y5957833D2*
X496723D1*
X691913D2*
X798300D1*
X921753D2*
X4662907D1*
X4831093D2*
X5068770D1*
X5263893D2*
X5322713D1*
X461493Y5925167D2*
X473143D1*
X715503D2*
X798300D1*
X921753D2*
X4662907D1*
X4831093D2*
X5045180D1*
X5287483D2*
X5299190D1*
X727040Y5892500D2*
X798300D1*
X921753D2*
X4662907D1*
X4831093D2*
X5033577D1*
X729877Y5859833D2*
X798300D1*
X921753D2*
X4662907D1*
X4831093D2*
X5030807D1*
X724460Y5827167D2*
X798300D1*
X921753D2*
X4662907D1*
X4831093D2*
X5036220D1*
X455627Y5794500D2*
X479000D1*
X709637D2*
X798300D1*
X921753D2*
X4662907D1*
X4831093D2*
X5051043D1*
X5281620D2*
X5305053D1*
X426493Y5761833D2*
X508197D1*
X680503D2*
X798300D1*
X921753D2*
X1496390D1*
X1560290D2*
X4662907D1*
X4831093D2*
X5080177D1*
X5252487D2*
X5334187D1*
X403163Y5729167D2*
X531463D1*
X657173D2*
X798300D1*
X921753D2*
X1446760D1*
X1609853D2*
X4662907D1*
X4831093D2*
X5103510D1*
X5229153D2*
X5357520D1*
X444607Y5696500D2*
X490020D1*
X698617D2*
X798300D1*
X921753D2*
X1428650D1*
X1628030D2*
X4662907D1*
X4831093D2*
X5062067D1*
X5270597D2*
X5316077D1*
X718917Y5663833D2*
X798300D1*
X921753D2*
X1423430D1*
X1633250D2*
X4662907D1*
X4831093D2*
X5041700D1*
X728393Y5631167D2*
X798300D1*
X921753D2*
X1428973D1*
X1627707D2*
X4662907D1*
X4831093D2*
X5032290D1*
X729360Y5598500D2*
X798300D1*
X921753D2*
X1447600D1*
X1609017D2*
X4662907D1*
X4831093D2*
X5031323D1*
X722013Y5565833D2*
X798300D1*
X921753D2*
X1459200D1*
X1597480D2*
X4662907D1*
X4831093D2*
X5038670D1*
X450663Y5533167D2*
X484027D1*
X704610D2*
X798300D1*
X921753D2*
X1459200D1*
X1597480D2*
X4662907D1*
X4831093D2*
X5056007D1*
X5276657D2*
X5310017D1*
X416440Y5500500D2*
X518250D1*
X670450D2*
X798300D1*
X921753D2*
X1459200D1*
X1597480D2*
X4662907D1*
X4831093D2*
X5090233D1*
X5242433D2*
X5344243D1*
X415923Y5467833D2*
X518767D1*
X669933D2*
X798300D1*
X921753D2*
X1459200D1*
X1597480D2*
X4662907D1*
X4831093D2*
X5090747D1*
X5241917D2*
X5344757D1*
X450407Y5435167D2*
X484283D1*
X704417D2*
X798300D1*
X921753D2*
X1459200D1*
X1597480D2*
X4662907D1*
X4831093D2*
X5056267D1*
X5276400D2*
X5310277D1*
X721883Y5402500D2*
X798300D1*
X921753D2*
X1459200D1*
X1597480D2*
X4662907D1*
X4831093D2*
X5038800D1*
X729360Y5369833D2*
X798300D1*
X921753D2*
X1459200D1*
X1597480D2*
X4662907D1*
X4831093D2*
X5031323D1*
X728457Y5337167D2*
X798300D1*
X921753D2*
X1459200D1*
X1597480D2*
X4662907D1*
X4831093D2*
X5032223D1*
X719110Y5304500D2*
X798300D1*
X921753D2*
X1459200D1*
X1597480D2*
X4662907D1*
X4831093D2*
X5041570D1*
X444927Y5271833D2*
X489760D1*
X698873D2*
X798300D1*
X921753D2*
X1459200D1*
X1597480D2*
X4662907D1*
X4831093D2*
X5061743D1*
X5270920D2*
X5315753D1*
X403807Y5239167D2*
X530817D1*
X657817D2*
X798300D1*
X921753D2*
X1459200D1*
X1597480D2*
X4662907D1*
X4831093D2*
X5102867D1*
X5229863D2*
X5356810D1*
X426043Y5206500D2*
X508583D1*
X680053D2*
X798300D1*
X921753D2*
X1459200D1*
X1597480D2*
X4662907D1*
X4831093D2*
X5080563D1*
X5252100D2*
X5334573D1*
X455370Y5173833D2*
X479237D1*
X709380D2*
X798300D1*
X921753D2*
X1459200D1*
X1597480D2*
X4662907D1*
X4831093D2*
X5051237D1*
X5281427D2*
X5305247D1*
X724333Y5141167D2*
X798300D1*
X921753D2*
X1459200D1*
X1597480D2*
X4662907D1*
X4831093D2*
X5036350D1*
X729810Y5108500D2*
X798300D1*
X921753D2*
X1459200D1*
X1597480D2*
X4662907D1*
X4831093D2*
X5030807D1*
X727103Y5075833D2*
X798300D1*
X921753D2*
X1459200D1*
X1597480D2*
X4662907D1*
X4831093D2*
X5033513D1*
X461620Y5043167D2*
X472983D1*
X715630D2*
X798300D1*
X921753D2*
X1459200D1*
X1597480D2*
X4662907D1*
X4831093D2*
X5044987D1*
X5287677D2*
X5298973D1*
X438223Y5010500D2*
X496400D1*
X692233D2*
X798300D1*
X921753D2*
X1459200D1*
X1597480D2*
X4662907D1*
X4831093D2*
X5068447D1*
X5264280D2*
X5322393D1*
X386533Y4977833D2*
X548090D1*
X640543D2*
X798300D1*
X921753D2*
X1459200D1*
X1597480D2*
X4662907D1*
X4831093D2*
X5120140D1*
X5212527D2*
X5374147D1*
X434550Y4945167D2*
X500140D1*
X688497D2*
X798300D1*
X921753D2*
X1459200D1*
X1597480D2*
X4662907D1*
X4831093D2*
X5072120D1*
X5260543D2*
X5326130D1*
X459753Y4912500D2*
X474953D1*
X713697D2*
X798300D1*
X921753D2*
X1459200D1*
X1597480D2*
X4044157D1*
X4143183D2*
X4662907D1*
X4831093D2*
X4886817D1*
X4985843D2*
X5046920D1*
X5285743D2*
X5300930D1*
X726330Y4879833D2*
X798300D1*
X921753D2*
X1459200D1*
X1597480D2*
X3797753D1*
X4180503D2*
X4662907D1*
X4831093D2*
X4849507D1*
X5023163D2*
X5034350D1*
X729940Y4847167D2*
X798300D1*
X921753D2*
X1459200D1*
X1597480D2*
X3748577D1*
X4195390D2*
X4662907D1*
X725363Y4814500D2*
X798300D1*
X921753D2*
X1459200D1*
X1597480D2*
X3715897D1*
X4198290D2*
X4662907D1*
X457627Y4781833D2*
X477033D1*
X711637D2*
X798300D1*
X921753D2*
X1459200D1*
X1597480D2*
X3683220D1*
X4190300D2*
X4662907D1*
X5283617D2*
X5303057D1*
X430490Y4749167D2*
X504200D1*
X684500D2*
X798300D1*
X921753D2*
X1459200D1*
X1597480D2*
X3650607D1*
X3822400D2*
X4019473D1*
X4167803D2*
X4662907D1*
X4831093D2*
X4862197D1*
X5256483D2*
X5330190D1*
X396007Y4716500D2*
X538617D1*
X650017D2*
X798300D1*
X921753D2*
X1459200D1*
X1597480D2*
X3617930D1*
X3789723D2*
X4061883D1*
X4134160D2*
X4662907D1*
X4831093D2*
X4876507D1*
X5222063D2*
X5364610D1*
X441707Y4683833D2*
X492983D1*
X695717D2*
X798300D1*
X921753D2*
X1459200D1*
X1597480D2*
X3585253D1*
X3757110D2*
X4015347D1*
X4180630D2*
X4662907D1*
X5267697D2*
X5318977D1*
X717437Y4651167D2*
X798300D1*
X921753D2*
X1459200D1*
X1597480D2*
X3552573D1*
X3724433D2*
X3784927D1*
X4198097D2*
X4662907D1*
X727877Y4618500D2*
X798300D1*
X921753D2*
X1459200D1*
X1597480D2*
X3519897D1*
X3691753D2*
X3752250D1*
X4202933D2*
X4662907D1*
X729617Y4585833D2*
X798300D1*
X921753D2*
X1459200D1*
X1597480D2*
X2278143D1*
X2418547D2*
X3487220D1*
X3659077D2*
X3719573D1*
X4196873D2*
X4662907D1*
X723173Y4553167D2*
X798300D1*
X921753D2*
X1459200D1*
X1597480D2*
X2253327D1*
X2443297D2*
X3454607D1*
X3626400D2*
X3686893D1*
X3858753D2*
X4018440D1*
X4177537D2*
X4662907D1*
X4831093D2*
X4847793D1*
X452983Y4520500D2*
X481703D1*
X706993D2*
X798300D1*
X921753D2*
X1459200D1*
X1597480D2*
X2244047D1*
X2452643D2*
X3422700D1*
X3593720D2*
X3654217D1*
X3826073D2*
X4075740D1*
X4120303D2*
X4662907D1*
X4831093D2*
X4941603D1*
X421273Y4487833D2*
X513417D1*
X675220D2*
X798300D1*
X921753D2*
X1459200D1*
X1597480D2*
X2245723D1*
X2473267D2*
X3410970D1*
X3561107D2*
X3623987D1*
X3793397D2*
X4662907D1*
X4831093D2*
X4974217D1*
X410510Y4455167D2*
X524117D1*
X664520D2*
X798300D1*
X921753D2*
X1459200D1*
X1597480D2*
X2259063D1*
X2505947D2*
X3410970D1*
X3534360D2*
X3615610D1*
X3760783D2*
X4662907D1*
X4831093D2*
X5006893D1*
X447893Y4422500D2*
X486797D1*
X701903D2*
X798300D1*
X921753D2*
X1459200D1*
X1597480D2*
X2292257D1*
X2538623D2*
X3410970D1*
X3534360D2*
X3615610D1*
X3739063D2*
X4662907D1*
X4831093D2*
X5044407D1*
X720593Y4389833D2*
X785923D1*
X921753D2*
X1459200D1*
X1597480D2*
X2364380D1*
X2571300D2*
X3410970D1*
X3534360D2*
X3615610D1*
X3739063D2*
X4662907D1*
X4831093D2*
X5040023D1*
X917887Y4357167D2*
X1459200D1*
X1597480D2*
X2397060D1*
X2603980D2*
X3410970D1*
X3534360D2*
X3615610D1*
X3739063D2*
X4662907D1*
X4831093D2*
X5031710D1*
X892427Y4324500D2*
X1459200D1*
X1597480D2*
X2429737D1*
X2636593D2*
X3410970D1*
X3534360D2*
X3615610D1*
X3739063D2*
X4662907D1*
X4831093D2*
X5031773D1*
X859747Y4291833D2*
X1459200D1*
X1597480D2*
X2462350D1*
X2669270D2*
X3410970D1*
X3534360D2*
X3615610D1*
X3739063D2*
X4662907D1*
X4831093D2*
X5040217D1*
X447637Y4259167D2*
X487053D1*
X701643D2*
X1459200D1*
X1597480D2*
X2495027D1*
X2701947D2*
X3410970D1*
X3534360D2*
X3615610D1*
X3739063D2*
X4662907D1*
X4831093D2*
X5059037D1*
X5273627D2*
X5313047D1*
X409930Y4226500D2*
X524697D1*
X663940D2*
X1459200D1*
X1597480D2*
X2527703D1*
X2734627D2*
X3410970D1*
X3534360D2*
X3615610D1*
X3739063D2*
X4662907D1*
X4831093D2*
X5096743D1*
X5235923D2*
X5350687D1*
X421723Y4193833D2*
X512963D1*
X675733D2*
X1459200D1*
X1597480D2*
X2560383D1*
X2767303D2*
X3410970D1*
X3534360D2*
X3615610D1*
X3739063D2*
X4662907D1*
X4831093D2*
X5084947D1*
X5247717D2*
X5338957D1*
X453243Y4161167D2*
X481447D1*
X707187D2*
X1459200D1*
X1597480D2*
X2593060D1*
X2799980D2*
X3410970D1*
X3534360D2*
X3615610D1*
X3739063D2*
X4662907D1*
X4831093D2*
X5053430D1*
X5279233D2*
X5307440D1*
X723300Y4128500D2*
X1459200D1*
X1597480D2*
X2625737D1*
X2832593D2*
X3410970D1*
X3534360D2*
X3615610D1*
X3739063D2*
X4662907D1*
X4831093D2*
X5037380D1*
X729683Y4095833D2*
X1459200D1*
X1597480D2*
X2658350D1*
X2865273D2*
X3410970D1*
X3534360D2*
X3615610D1*
X3739063D2*
X4662907D1*
X4831093D2*
X5031000D1*
X727813Y4063167D2*
X1459200D1*
X1597480D2*
X2691030D1*
X2897950D2*
X3410970D1*
X3534360D2*
X3615610D1*
X3739063D2*
X4662907D1*
X4831093D2*
X5032870D1*
X717307Y4030500D2*
X1459200D1*
X1597480D2*
X2723707D1*
X2929790D2*
X3410970D1*
X3534360D2*
X3615610D1*
X3739063D2*
X4662907D1*
X4831093D2*
X5043373D1*
X441383Y3997833D2*
X493243D1*
X695393D2*
X1459200D1*
X1597480D2*
X2756383D1*
X2943647D2*
X3410970D1*
X3534360D2*
X3615610D1*
X3739063D2*
X4662907D1*
X4831093D2*
X5065290D1*
X5267377D2*
X5319300D1*
X395233Y3965167D2*
X539390D1*
X649243D2*
X1459200D1*
X1597480D2*
X2789063D1*
X2944483D2*
X3410970D1*
X3534360D2*
X3615610D1*
X3739063D2*
X4662907D1*
X4831093D2*
X5111437D1*
X5221290D2*
X5365383D1*
X430877Y3932500D2*
X503813D1*
X684887D2*
X1459200D1*
X1597480D2*
X2796217D1*
X2944483D2*
X3410970D1*
X3534360D2*
X3615610D1*
X3739063D2*
X4662907D1*
X4831093D2*
X5075793D1*
X5256870D2*
X5329803D1*
X457820Y3899833D2*
X476830D1*
X711830D2*
X1459200D1*
X1597480D2*
X2796217D1*
X2944483D2*
X3410970D1*
X3534360D2*
X3615610D1*
X3739063D2*
X4662907D1*
X4831093D2*
X5048853D1*
X5283810D2*
X5302863D1*
X725493Y3867167D2*
X1459200D1*
X1597480D2*
X2796217D1*
X2965110D2*
X3410970D1*
X3534360D2*
X3615610D1*
X3739063D2*
X4662907D1*
X4831093D2*
X5035190D1*
X729940Y3834500D2*
X1459200D1*
X1597480D2*
X2796217D1*
X3075453D2*
X3410970D1*
X3534360D2*
X3615610D1*
X3739063D2*
X4662907D1*
X4831093D2*
X5030743D1*
X726200Y3801833D2*
X1459200D1*
X1597480D2*
X2796217D1*
X3123407D2*
X3410970D1*
X3534360D2*
X3615610D1*
X3739063D2*
X4662907D1*
X4831093D2*
X5034417D1*
X459560Y3769167D2*
X475127D1*
X713570D2*
X1459200D1*
X1597480D2*
X2796217D1*
X3141260D2*
X3410970D1*
X3534360D2*
X3615610D1*
X3739063D2*
X4662907D1*
X4831093D2*
X5047113D1*
X5285550D2*
X5301123D1*
X434163Y3736500D2*
X500527D1*
X688173D2*
X1459200D1*
X1597480D2*
X2796217D1*
X3146223D2*
X3410970D1*
X3534360D2*
X3615610D1*
X3739063D2*
X4662907D1*
X4831093D2*
X5072507D1*
X5260157D2*
X5326517D1*
X387500Y3703833D2*
X547123D1*
X641510D2*
X1459200D1*
X1597480D2*
X2796217D1*
X3140487D2*
X3410970D1*
X3534360D2*
X3615610D1*
X3739063D2*
X4662907D1*
X4831093D2*
X5119173D1*
X5213493D2*
X5373180D1*
X438547Y3671167D2*
X496077D1*
X692557D2*
X1459200D1*
X1597480D2*
X2796217D1*
X2944483D2*
X2961217D1*
X3121473D2*
X3410970D1*
X3534360D2*
X3615610D1*
X3739063D2*
X4662907D1*
X4831093D2*
X5068060D1*
X5264603D2*
X5322070D1*
X461813Y3638500D2*
X472847D1*
X715823D2*
X1459200D1*
X1597480D2*
X2796217D1*
X2944483D2*
X3015810D1*
X3066817D2*
X3410970D1*
X3534360D2*
X3615610D1*
X3739063D2*
X4662907D1*
X4831093D2*
X5044857D1*
X5287807D2*
X5298903D1*
X727233Y3605833D2*
X1459200D1*
X1597480D2*
X2796217D1*
X2944483D2*
X3410970D1*
X3534360D2*
X3615610D1*
X3739063D2*
X4662907D1*
X4831093D2*
X5033450D1*
X729810Y3573167D2*
X1459200D1*
X1597480D2*
X2796217D1*
X2944483D2*
X3410970D1*
X3534360D2*
X3615610D1*
X3739063D2*
X4662907D1*
X4831093D2*
X5030870D1*
X724203Y3540500D2*
X1459200D1*
X1597480D2*
X2796217D1*
X2944483D2*
X3410970D1*
X3534360D2*
X3615610D1*
X3739063D2*
X4662907D1*
X4831093D2*
X5036413D1*
X455177Y3507833D2*
X479450D1*
X709187D2*
X1459200D1*
X1597480D2*
X2796217D1*
X2944483D2*
X3410970D1*
X3534360D2*
X3615610D1*
X3739063D2*
X4662907D1*
X4831093D2*
X5051497D1*
X5281167D2*
X5305507D1*
X425657Y3475167D2*
X509033D1*
X679667D2*
X1459200D1*
X1597480D2*
X2796217D1*
X2944483D2*
X3410970D1*
X3534360D2*
X3615610D1*
X3739063D2*
X4662907D1*
X4831093D2*
X5081017D1*
X5251650D2*
X5335027D1*
X404450Y3442500D2*
X530173D1*
X658460D2*
X1459200D1*
X1597480D2*
X2796217D1*
X2944483D2*
X3410970D1*
X3534360D2*
X3615610D1*
X3739063D2*
X4662907D1*
X4831093D2*
X5102157D1*
X5230507D2*
X5356167D1*
X445187Y3409833D2*
X489503D1*
X699197D2*
X1459200D1*
X1597480D2*
X2796217D1*
X2944483D2*
X3410970D1*
X3534360D2*
X3615610D1*
X3739063D2*
X4662907D1*
X4831093D2*
X5061487D1*
X5271177D2*
X5315497D1*
X719240Y3377167D2*
X1459200D1*
X1597480D2*
X2796217D1*
X2944483D2*
X3410970D1*
X3534360D2*
X3615610D1*
X3739063D2*
X4662907D1*
X4831093D2*
X5041440D1*
X728523Y3344500D2*
X1459200D1*
X1597480D2*
X2796217D1*
X2944483D2*
X3410970D1*
X3534360D2*
X3615610D1*
X3739063D2*
X4662907D1*
X4831093D2*
X5032160D1*
X729297Y3311833D2*
X1459200D1*
X1597480D2*
X2796217D1*
X2944483D2*
X3410970D1*
X3534360D2*
X3615610D1*
X3739063D2*
X4662907D1*
X4831093D2*
X5031387D1*
X721753Y3279167D2*
X1459200D1*
X1597480D2*
X2796217D1*
X2944483D2*
X3410970D1*
X3534360D2*
X3615610D1*
X3739063D2*
X4662907D1*
X4831093D2*
X5038927D1*
X450150Y3246500D2*
X484540D1*
X704160D2*
X1459200D1*
X1597480D2*
X2796217D1*
X2944483D2*
X3410970D1*
X3534360D2*
X3615610D1*
X3739063D2*
X4662907D1*
X4831093D2*
X5056523D1*
X5276140D2*
X5310533D1*
X415410Y3213833D2*
X519280D1*
X669417D2*
X1459200D1*
X1597480D2*
X2796217D1*
X2944483D2*
X3410970D1*
X3534360D2*
X3615610D1*
X3739063D2*
X4662907D1*
X4831093D2*
X5091263D1*
X5241400D2*
X5345273D1*
X416957Y3181167D2*
X517733D1*
X670900D2*
X1459200D1*
X1597480D2*
X2796217D1*
X2944483D2*
X3410970D1*
X3534360D2*
X3615610D1*
X3739063D2*
X4662907D1*
X4831093D2*
X5089717D1*
X5242947D2*
X5343727D1*
X450857Y3148500D2*
X483767D1*
X704867D2*
X1459200D1*
X1597480D2*
X2796217D1*
X2944483D2*
X3410970D1*
X3534360D2*
X3615610D1*
X3739063D2*
X4662907D1*
X4831093D2*
X5055813D1*
X5276913D2*
X5309760D1*
X722140Y3115833D2*
X1459200D1*
X1597480D2*
X2796217D1*
X2944483D2*
X3410970D1*
X3534360D2*
X3615610D1*
X3739063D2*
X4662907D1*
X4831093D2*
X5038540D1*
X729423Y3083167D2*
X1445667D1*
X1610950D2*
X2796217D1*
X2944483D2*
X3410970D1*
X3534360D2*
X3615610D1*
X3739063D2*
X4662907D1*
X4838440D2*
X5031257D1*
X728330Y3050500D2*
X1428200D1*
X1628480D2*
X2796217D1*
X2944483D2*
X3410970D1*
X3534360D2*
X3615610D1*
X3739063D2*
X4663167D1*
X4871117D2*
X5032290D1*
X718790Y3017833D2*
X1423430D1*
X1633250D2*
X2796217D1*
X2944483D2*
X3410970D1*
X3534360D2*
X3615610D1*
X3739063D2*
X4673027D1*
X4903797D2*
X5041893D1*
X444347Y2985167D2*
X490340D1*
X698357D2*
X1429423D1*
X1627190D2*
X2796217D1*
X2944483D2*
X3410970D1*
X3534360D2*
X3615610D1*
X3739063D2*
X4701257D1*
X4936410D2*
X5062323D1*
X5270340D2*
X5316333D1*
X402517Y2952500D2*
X532173D1*
X656527D2*
X1448760D1*
X1607920D2*
X2796217D1*
X2944483D2*
X3410970D1*
X3534360D2*
X3615610D1*
X3739063D2*
X4733870D1*
X4969087D2*
X5104153D1*
X5228510D2*
X5358163D1*
X426880Y2919833D2*
X507743D1*
X680890D2*
X1506060D1*
X1550620D2*
X2796217D1*
X2944483D2*
X3410970D1*
X3534360D2*
X3615610D1*
X3739063D2*
X4766550D1*
X5001763D2*
X5079790D1*
X5252873D2*
X5333737D1*
X455820Y2887167D2*
X478887D1*
X709830D2*
X2796217D1*
X2944483D2*
X3410970D1*
X3534360D2*
X3615610D1*
X3739063D2*
X4799227D1*
X724527Y2854500D2*
X2796217D1*
X2944483D2*
X3410970D1*
X3534360D2*
X3615610D1*
X3739063D2*
X4831903D1*
X729877Y2821833D2*
X2796217D1*
X2944483D2*
X3410970D1*
X3534360D2*
X3615610D1*
X3739063D2*
X4864583D1*
X726973Y2789167D2*
X2796217D1*
X2944483D2*
X3410970D1*
X3534360D2*
X3615610D1*
X3739063D2*
X4897260D1*
X461300Y2756500D2*
X473383D1*
X715310D2*
X2796217D1*
X2944483D2*
X3410970D1*
X3534360D2*
X3615610D1*
X3739063D2*
X4930130D1*
X437580Y2723833D2*
X497043D1*
X691590D2*
X2796217D1*
X2944483D2*
X3410970D1*
X3534360D2*
X3615610D1*
X3739063D2*
X5069090D1*
X5263573D2*
X5323100D1*
X384537Y2691167D2*
X550090D1*
X638547D2*
X2349170D1*
X2767433D2*
X2796217D1*
X2944483D2*
X3196663D1*
X3351377D2*
X3396663D1*
X3551377D2*
X3596660D1*
X4008090D2*
X5122137D1*
X5210527D2*
X5376083D1*
X435197Y2658500D2*
X499430D1*
X689207D2*
X2319650D1*
X2767433D2*
X2796217D1*
X2950607D2*
X3163600D1*
X4008090D2*
X5071477D1*
X5261253D2*
X5325423D1*
X460073Y2625833D2*
X474603D1*
X714083D2*
X2304697D1*
X2767433D2*
X2796860D1*
X2983287D2*
X3146970D1*
X4008090D2*
X4639447D1*
X5286067D2*
X5300607D1*
X726460Y2593167D2*
X2299283D1*
X2767433D2*
X2810140D1*
X3015963D2*
X3140267D1*
X4008090D2*
X4606770D1*
X729940Y2560500D2*
X2302183D1*
X2792890D2*
X2841720D1*
X3048640D2*
X3141880D1*
X4008090D2*
X4574090D1*
X725170Y2527833D2*
X2314043D1*
X2825570D2*
X2874397D1*
X3081320D2*
X3152257D1*
X4008090D2*
X4541413D1*
X457240Y2495167D2*
X477450D1*
X711247D2*
X2338213D1*
X2858247D2*
X2907077D1*
X4008090D2*
X4508737D1*
X5283230D2*
X5303443D1*
X429717Y2462500D2*
X504973D1*
X683727D2*
X2394287D1*
X2472430D2*
X2499217D1*
X2890923D2*
X2939690D1*
X4008090D2*
X4476123D1*
X4739570D2*
X5076953D1*
X5255710D2*
X5330963D1*
X397553Y2429833D2*
X537133D1*
X651563D2*
X2660090D1*
X4706890D2*
X5109117D1*
X5223547D2*
X5363127D1*
X442287Y2397167D2*
X492340D1*
X696297D2*
X2692770D1*
X4674213D2*
X5064387D1*
X5268277D2*
X5318397D1*
X717757Y2364500D2*
X2725447D1*
X4641600D2*
X5042923D1*
X727940Y2331833D2*
X2758123D1*
X4608923D2*
X5032677D1*
X729617Y2299167D2*
X2790737D1*
X4576243D2*
X5031063D1*
X722913Y2266500D2*
X1784367D1*
X4538540D2*
X5037703D1*
X452533Y2233833D2*
X482157D1*
X706543D2*
X1699740D1*
X4067063D2*
X5054140D1*
X5278527D2*
X5308147D1*
X420307Y2201167D2*
X514317D1*
X674317D2*
X1633547D1*
X4124427D2*
X5086367D1*
X5246300D2*
X5340373D1*
X411670Y2168500D2*
X470040D1*
X718597D2*
X1588430D1*
X4174830D2*
X5095003D1*
X5237663D2*
X5296030D1*
X448410Y2135833D2*
X458753D1*
X729940D2*
X1543313D1*
X4215243D2*
X5058263D1*
X5274400D2*
X5284750D1*
X729940Y2103167D2*
X1510570D1*
X4252820D2*
X5039767D1*
X729940Y2070500D2*
X1478923D1*
X4281950D2*
X5031643D1*
X729940Y2037833D2*
X1450177D1*
X4311020D2*
X5031837D1*
X729940Y2005167D2*
X1428070D1*
X4334417D2*
X5040473D1*
X447053Y1972500D2*
X458750D1*
X729940D2*
X1406027D1*
X4355170D2*
X5059553D1*
X5273110D2*
X5284680D1*
X408770Y1939833D2*
X471457D1*
X717177D2*
X1386110D1*
X4375923D2*
X5097903D1*
X5234763D2*
X5297450D1*
X271613Y1907167D2*
X1371543D1*
X4391330D2*
X5492163D1*
X271613Y1874500D2*
X1356913D1*
X4405250D2*
X5492163D1*
X271613Y1841833D2*
X1342347D1*
X4419173D2*
X5492163D1*
X271550Y1809167D2*
X1334033D1*
X4429420D2*
X5492163D1*
X271550Y1776500D2*
X1325847D1*
X4437413D2*
X5492163D1*
X271550Y1743833D2*
X1317663D1*
X4445403D2*
X5492163D1*
X2519013Y2719153D2*
X2764153D1*
Y2585930D1*
X2913260Y2436847D1*
X2968673Y2436820D1*
X2816480Y2589340D1*
X2809950Y2598330D1*
X2804903Y2608230D1*
X2801470Y2618800D1*
X2799730Y2629777D1*
X2799513Y2701333D1*
Y3957957D1*
X2349783Y4407730D1*
X2340360Y4408027D1*
X2324610Y4410520D1*
X2309447Y4415450D1*
X2295237Y4422687D1*
X2282337Y4432060D1*
X2271060Y4443337D1*
X2261687Y4456237D1*
X2254450Y4470447D1*
X2249520Y4485610D1*
X2247027Y4501360D1*
Y4517307D1*
X2249520Y4533057D1*
X2254450Y4548220D1*
X2261687Y4562430D1*
X2271060Y4575330D1*
X2282337Y4586607D1*
X2295237Y4595980D1*
X2309447Y4603217D1*
X2324610Y4608147D1*
X2340360Y4610640D1*
X2356307D1*
X2372057Y4608147D1*
X2387220Y4603217D1*
X2401430Y4595980D1*
X2414330Y4586607D1*
X2425607Y4575330D1*
X2434980Y4562430D1*
X2442217Y4548220D1*
X2447147Y4533057D1*
X2449640Y4517307D1*
X2449897Y4507933D1*
X2924187Y4033327D1*
X2930717Y4024337D1*
X2935763Y4014433D1*
X2939197Y4003867D1*
X2940937Y3992890D1*
X2941153Y3921333D1*
Y3887883D1*
X2998937Y3830057D1*
X3009930Y3834313D1*
X3025437Y3838037D1*
X3041333Y3839287D1*
X3057230Y3838037D1*
X3072737Y3834313D1*
X3087467Y3828210D1*
X3101063Y3819880D1*
X3113190Y3809523D1*
X3123547Y3797397D1*
X3131877Y3783800D1*
X3137980Y3769070D1*
X3141703Y3753563D1*
X3142953Y3737667D1*
X3141703Y3721770D1*
X3137980Y3706263D1*
X3131877Y3691533D1*
X3123547Y3677937D1*
X3113190Y3665810D1*
X3101063Y3655453D1*
X3087467Y3647123D1*
X3072737Y3641020D1*
X3057230Y3637297D1*
X3041333Y3636047D1*
X3025437Y3637297D1*
X3009930Y3641020D1*
X2995200Y3647123D1*
X2981603Y3655453D1*
X2969477Y3665810D1*
X2963387Y3672527D1*
X2954170Y3677283D1*
X2945163Y3683830D1*
X2941153Y3677007D1*
Y2664640D1*
X3098290Y2507530D1*
X3167420Y2507487D1*
X3160350Y2518543D1*
X3154403Y2530320D1*
X3149670Y2542637D1*
X3146203Y2555367D1*
X3144037Y2568383D1*
X3143193Y2581550D1*
X3143677Y2594737D1*
X3145490Y2607807D1*
X3148607Y2620627D1*
X3153003Y2633067D1*
X3158627Y2645003D1*
X3165427Y2656310D1*
X3173330Y2666877D1*
X3182257Y2676590D1*
X3192117Y2685357D1*
X3202810Y2693087D1*
X3214230Y2699700D1*
X3226253Y2705130D1*
X3238767Y2709320D1*
X3251637Y2712227D1*
X3264733Y2713823D1*
X3277923Y2714093D1*
X3291077Y2713033D1*
X3304053Y2710653D1*
X3316727Y2706980D1*
X3328963Y2702047D1*
X3340643Y2695907D1*
X3351643Y2688620D1*
X3361853Y2680263D1*
X3371170Y2670920D1*
X3374003Y2667660D1*
X3381497Y2675837D1*
X3397107Y2689170D1*
X3414223Y2699680D1*
X3414427Y4489917D1*
X3415860Y4498970D1*
X3418693Y4507690D1*
X3422857Y4515857D1*
X3428243Y4523273D1*
X3513027Y4608313D1*
X3771393Y4866423D1*
X3778810Y4871810D1*
X3786977Y4875973D1*
X3795697Y4878807D1*
X3804750Y4880240D1*
X3924833Y4880420D1*
X4010490D1*
X4016393Y4887997D1*
X4027670Y4899273D1*
X4040570Y4908647D1*
X4054780Y4915883D1*
X4069943Y4920813D1*
X4085693Y4923307D1*
X4101640D1*
X4117390Y4920813D1*
X4132553Y4915883D1*
X4146763Y4908647D1*
X4159663Y4899273D1*
X4170940Y4887997D1*
X4180313Y4875097D1*
X4187550Y4860887D1*
X4192480Y4845723D1*
X4194973Y4829973D1*
Y4814027D1*
X4192480Y4798277D1*
X4187550Y4783113D1*
X4180313Y4768903D1*
X4170940Y4756003D1*
X4159663Y4744727D1*
X4146763Y4735353D1*
X4132553Y4728117D1*
X4117390Y4723187D1*
X4108047Y4721450D1*
X4121723Y4719147D1*
X4136887Y4714217D1*
X4151097Y4706980D1*
X4163997Y4697607D1*
X4175273Y4686330D1*
X4184647Y4673430D1*
X4191883Y4659220D1*
X4196813Y4644057D1*
X4199307Y4628307D1*
Y4612360D1*
X4196813Y4596610D1*
X4191883Y4581447D1*
X4184647Y4567237D1*
X4175273Y4554337D1*
X4163997Y4543060D1*
X4151097Y4533687D1*
X4136887Y4526450D1*
X4121723Y4521520D1*
X4105973Y4519027D1*
X4090027D1*
X4074277Y4521520D1*
X4059113Y4526450D1*
X4044903Y4533687D1*
X4032003Y4543060D1*
X4020727Y4554337D1*
X4014903Y4561923D1*
X3864230Y4561913D1*
X3735787Y4433503D1*
X3735753Y2698677D1*
X3743180Y2700013D1*
Y2714153D1*
X4004820D1*
Y2452513D1*
X3909367D1*
X3893680Y2436857D1*
X4453673Y2436820D1*
X4649350Y2632060D1*
X4660880Y2640437D1*
X4673577Y2646907D1*
X4687133Y2651310D1*
X4701207Y2653540D1*
X4757833Y2653820D1*
X5070110D1*
X5080400Y2663617D1*
X5097197Y2675820D1*
X5115697Y2685247D1*
X5129390Y2689957D1*
X5115697Y2694753D1*
X5097197Y2704180D1*
X5080400Y2716383D1*
X5065717Y2731067D1*
X5061670Y2736197D1*
X4980660Y2736430D1*
X4968133Y2738413D1*
X4956070Y2742333D1*
X4944770Y2748090D1*
X4934510Y2755543D1*
X4894850Y2794853D1*
X4685543Y3004510D1*
X4678090Y3014770D1*
X4672333Y3026070D1*
X4668413Y3038133D1*
X4666430Y3050660D1*
X4666180Y3106500D1*
Y7830207D1*
X4568210Y7928160D1*
X2953537Y7928180D1*
X2942063Y7918453D1*
X2928467Y7910123D1*
X2913737Y7904020D1*
X2898230Y7900297D1*
X2882333Y7899047D1*
X2866437Y7900297D1*
X2850930Y7904020D1*
X2836200Y7910123D1*
X2822603Y7918453D1*
X2810477Y7928810D1*
X2800120Y7940937D1*
X2791790Y7954533D1*
X2785687Y7969263D1*
X2781963Y7984770D1*
X2780713Y8000667D1*
X2781963Y8016563D1*
X2785687Y8032070D1*
X2791790Y8046800D1*
X2800120Y8060397D1*
X2810477Y8072523D1*
X2822603Y8082880D1*
X2836200Y8091210D1*
X2850930Y8097313D1*
X2866437Y8101037D1*
X2882333Y8102287D1*
X2898230Y8101037D1*
X2913737Y8097313D1*
X2928467Y8091210D1*
X2930943Y8089823D1*
X4608007Y8089570D1*
X4620533Y8087587D1*
X4632597Y8083667D1*
X4643897Y8077910D1*
X4654157Y8070457D1*
X4693817Y8031147D1*
X4808457Y7916157D1*
X4815910Y7905897D1*
X4821667Y7894597D1*
X4825587Y7882533D1*
X4827570Y7870007D1*
X4827820Y7814167D1*
Y4659380D1*
X4832790Y4670800D1*
X4841120Y4684397D1*
X4851477Y4696523D1*
X4863603Y4706880D1*
X4877200Y4715210D1*
X4891930Y4721313D1*
X4906490Y4724847D1*
X4897447Y4728117D1*
X4883237Y4735353D1*
X4870337Y4744727D1*
X4859060Y4756003D1*
X4849687Y4768903D1*
X4842450Y4783113D1*
X4837520Y4798277D1*
X4835027Y4814027D1*
Y4829973D1*
X4837520Y4845723D1*
X4842450Y4860887D1*
X4849687Y4875097D1*
X4859060Y4887997D1*
X4870337Y4899273D1*
X4883237Y4908647D1*
X4897447Y4915883D1*
X4912610Y4920813D1*
X4928360Y4923307D1*
X4944307D1*
X4960057Y4920813D1*
X4975220Y4915883D1*
X4989430Y4908647D1*
X5002330Y4899273D1*
X5013607Y4887997D1*
X5022980Y4875097D1*
X5030217Y4860887D1*
X5034020Y4849713D1*
X5035643Y4869700D1*
X5040490Y4889890D1*
X5048437Y4909073D1*
X5059283Y4926777D1*
X5072770Y4942563D1*
X5088557Y4956050D1*
X5106260Y4966897D1*
X5125443Y4974843D1*
X5129390Y4975957D1*
X5115697Y4980753D1*
X5097197Y4990180D1*
X5080400Y5002383D1*
X5065717Y5017067D1*
X5053513Y5033863D1*
X5044087Y5052363D1*
X5037670Y5072110D1*
X5034420Y5092617D1*
Y5113383D1*
X5037670Y5133890D1*
X5044087Y5153637D1*
X5053513Y5172137D1*
X5065717Y5188933D1*
X5080400Y5203617D1*
X5097197Y5215820D1*
X5115697Y5225247D1*
X5129390Y5229957D1*
X5115697Y5234753D1*
X5097197Y5244180D1*
X5080400Y5256383D1*
X5065717Y5271067D1*
X5053513Y5287863D1*
X5044087Y5306363D1*
X5037670Y5326110D1*
X5034420Y5346617D1*
Y5367383D1*
X5037670Y5387890D1*
X5044087Y5407637D1*
X5053513Y5426137D1*
X5065717Y5442933D1*
X5080400Y5457617D1*
X5097197Y5469820D1*
X5115697Y5479247D1*
X5129390Y5483957D1*
X5115697Y5488753D1*
X5097197Y5498180D1*
X5080400Y5510383D1*
X5065717Y5525067D1*
X5053513Y5541863D1*
X5044087Y5560363D1*
X5037670Y5580110D1*
X5034420Y5600617D1*
Y5621383D1*
X5037670Y5641890D1*
X5044087Y5661637D1*
X5053513Y5680137D1*
X5065717Y5696933D1*
X5080400Y5711617D1*
X5097197Y5723820D1*
X5115697Y5733247D1*
X5129390Y5737957D1*
X5115697Y5742753D1*
X5097197Y5752180D1*
X5080400Y5764383D1*
X5065717Y5779067D1*
X5053513Y5795863D1*
X5044087Y5814363D1*
X5037670Y5834110D1*
X5034420Y5854617D1*
Y5875383D1*
X5037670Y5895890D1*
X5044087Y5915637D1*
X5053513Y5934137D1*
X5065717Y5950933D1*
X5080400Y5965617D1*
X5097197Y5977820D1*
X5115697Y5987247D1*
X5129390Y5991957D1*
X5115697Y5996753D1*
X5097197Y6006180D1*
X5080400Y6018383D1*
X5065717Y6033067D1*
X5053513Y6049863D1*
X5044087Y6068363D1*
X5037670Y6088110D1*
X5034420Y6108617D1*
Y6129383D1*
X5037670Y6149890D1*
X5044087Y6169637D1*
X5053513Y6188137D1*
X5065717Y6204933D1*
X5080400Y6219617D1*
X5097197Y6231820D1*
X5115697Y6241247D1*
X5129390Y6245957D1*
X5115697Y6250753D1*
X5097197Y6260180D1*
X5080400Y6272383D1*
X5065717Y6287067D1*
X5053513Y6303863D1*
X5044087Y6322363D1*
X5037670Y6342110D1*
X5034420Y6362617D1*
Y6383383D1*
X5037670Y6403890D1*
X5044087Y6423637D1*
X5053513Y6442137D1*
X5065717Y6458933D1*
X5080400Y6473617D1*
X5097197Y6485820D1*
X5115697Y6495247D1*
X5129390Y6499957D1*
X5115697Y6504753D1*
X5097197Y6514180D1*
X5080400Y6526383D1*
X5065717Y6541067D1*
X5053513Y6557863D1*
X5044087Y6576363D1*
X5037670Y6596110D1*
X5034420Y6616617D1*
Y6637383D1*
X5037670Y6657890D1*
X5044087Y6677637D1*
X5053513Y6696137D1*
X5065717Y6712933D1*
X5080400Y6727617D1*
X5097197Y6739820D1*
X5115697Y6749247D1*
X5129390Y6753957D1*
X5115697Y6758753D1*
X5097197Y6768180D1*
X5080400Y6780383D1*
X5065717Y6795067D1*
X5053513Y6811863D1*
X5044087Y6830363D1*
X5037670Y6850110D1*
X5034420Y6870617D1*
Y6891383D1*
X5037670Y6911890D1*
X5044087Y6931637D1*
X5053513Y6950137D1*
X5065717Y6966933D1*
X5080400Y6981617D1*
X5097197Y6993820D1*
X5115697Y7003247D1*
X5129390Y7007957D1*
X5115697Y7012753D1*
X5097197Y7022180D1*
X5080400Y7034383D1*
X5065717Y7049067D1*
X5053513Y7065863D1*
X5044087Y7084363D1*
X5037670Y7104110D1*
X5034420Y7124617D1*
Y7145383D1*
X5037670Y7165890D1*
X5044087Y7185637D1*
X5053513Y7204137D1*
X5065717Y7220933D1*
X5080400Y7235617D1*
X5097197Y7247820D1*
X5115697Y7257247D1*
X5129390Y7261957D1*
X5114877Y7267097D1*
X5100113Y7274443D1*
X5086380Y7283567D1*
X5073887Y7294330D1*
X5062830Y7306563D1*
X5053380Y7320077D1*
X5045687Y7334660D1*
X5039863Y7350090D1*
X5036007Y7366120D1*
X5034173Y7382507D1*
X5034390Y7398993D1*
X5036660Y7415327D1*
X5040940Y7431250D1*
X5047170Y7446520D1*
X5055247Y7460893D1*
X5065053Y7474150D1*
X5076430Y7486087D1*
X5089203Y7496513D1*
X5103173Y7505273D1*
X5118127Y7512227D1*
X5129217Y7515997D1*
X5114877Y7521097D1*
X5100113Y7528443D1*
X5086380Y7537567D1*
X5073887Y7548330D1*
X5062830Y7560563D1*
X5053380Y7574077D1*
X5045687Y7588660D1*
X5039863Y7604090D1*
X5036007Y7620120D1*
X5034173Y7636507D1*
X5034390Y7652993D1*
X5036660Y7669327D1*
X5040940Y7685250D1*
X5047170Y7700520D1*
X5055247Y7714893D1*
X5065053Y7728150D1*
X5076430Y7740087D1*
X5089203Y7750513D1*
X5103173Y7759273D1*
X5118127Y7766227D1*
X5133827Y7771263D1*
X5150030Y7774313D1*
X5166490Y7775320D1*
X5182947Y7774273D1*
X5199143Y7771187D1*
X5214833Y7766110D1*
X5229767Y7759123D1*
X5243717Y7750333D1*
X5256467Y7739873D1*
X5267817Y7727910D1*
X5277590Y7714630D1*
X5285633Y7700237D1*
X5291827Y7684953D1*
X5293330Y7680117D1*
X5298450Y7694507D1*
X5305803Y7709267D1*
X5314933Y7722997D1*
X5325700Y7735483D1*
X5337937Y7746537D1*
X5351457Y7755980D1*
X5366043Y7763670D1*
X5381470Y7769483D1*
X5397503Y7773337D1*
X5413893Y7775163D1*
X5430380Y7774937D1*
X5446713Y7772663D1*
X5462633Y7768377D1*
X5466193Y7767113D1*
X5445090Y7846370D1*
X5415063Y7931840D1*
X5378493Y8014727D1*
X5335607Y8094523D1*
X5286663Y8170753D1*
X5231950Y8242960D1*
X5171803Y8310703D1*
X5106583Y8373580D1*
X5036683Y8431207D1*
X4962523Y8483237D1*
X4884550Y8529360D1*
X4803233Y8569293D1*
X4719067Y8602803D1*
X4632553Y8629683D1*
X4544217Y8649770D1*
X4454590Y8662947D1*
X4363697Y8669167D1*
X1389907Y8669163D1*
X1298073Y8663010D1*
X1207813Y8649707D1*
X1118850Y8629280D1*
X1031787Y8601863D1*
X947173Y8567630D1*
X865540Y8526790D1*
X787403Y8479607D1*
X713257Y8426373D1*
X643563Y8367427D1*
X578763Y8303140D1*
X519270Y8233917D1*
X465453Y8160190D1*
X417650Y8082430D1*
X376167Y8001123D1*
X341263Y7916783D1*
X313160Y7829940D1*
X298550Y7768550D1*
X309443Y7771663D1*
X329950Y7774913D1*
X350717D1*
X371223Y7771663D1*
X390970Y7765247D1*
X409470Y7755820D1*
X426267Y7743617D1*
X440950Y7728933D1*
X453153Y7712137D1*
X462580Y7693637D1*
X467290Y7679943D1*
X472087Y7693637D1*
X481513Y7712137D1*
X493717Y7728933D1*
X508400Y7743617D1*
X525197Y7755820D1*
X543697Y7765247D1*
X563443Y7771663D1*
X583950Y7774913D1*
X604717D1*
X625223Y7771663D1*
X644970Y7765247D1*
X663470Y7755820D1*
X680267Y7743617D1*
X694950Y7728933D1*
X707153Y7712137D1*
X716580Y7693637D1*
X722997Y7673890D1*
X726247Y7653383D1*
Y7632617D1*
X722997Y7612110D1*
X716580Y7592363D1*
X707153Y7573863D1*
X694950Y7557067D1*
X680267Y7542383D1*
X663470Y7530180D1*
X644970Y7520753D1*
X631277Y7516043D1*
X644970Y7511247D1*
X663470Y7501820D1*
X680267Y7489617D1*
X694950Y7474933D1*
X707153Y7458137D1*
X716580Y7439637D1*
X722997Y7419890D1*
X726247Y7399383D1*
Y7378617D1*
X722997Y7358110D1*
X716580Y7338363D1*
X707153Y7319863D1*
X694950Y7303067D1*
X680267Y7288383D1*
X663470Y7276180D1*
X644970Y7266753D1*
X631277Y7262043D1*
X644970Y7257247D1*
X663470Y7247820D1*
X680267Y7235617D1*
X694950Y7220933D1*
X707153Y7204137D1*
X716580Y7185637D1*
X722997Y7165890D1*
X726247Y7145383D1*
Y7124617D1*
X722997Y7104110D1*
X716580Y7084363D1*
X707153Y7065863D1*
X694950Y7049067D1*
X680267Y7034383D1*
X663470Y7022180D1*
X644970Y7012753D1*
X631277Y7008043D1*
X644970Y7003247D1*
X663470Y6993820D1*
X680267Y6981617D1*
X694950Y6966933D1*
X707153Y6950137D1*
X716580Y6931637D1*
X722997Y6911890D1*
X726247Y6891383D1*
Y6870617D1*
X722997Y6850110D1*
X716580Y6830363D1*
X707153Y6811863D1*
X694950Y6795067D1*
X680267Y6780383D1*
X663470Y6768180D1*
X644970Y6758753D1*
X631277Y6754043D1*
X644970Y6749247D1*
X663470Y6739820D1*
X680267Y6727617D1*
X694950Y6712933D1*
X707153Y6696137D1*
X716580Y6677637D1*
X722997Y6657890D1*
X726247Y6637383D1*
Y6616617D1*
X722997Y6596110D1*
X716580Y6576363D1*
X707153Y6557863D1*
X694950Y6541067D1*
X680267Y6526383D1*
X663470Y6514180D1*
X644970Y6504753D1*
X631277Y6500043D1*
X644970Y6495247D1*
X663470Y6485820D1*
X680267Y6473617D1*
X694950Y6458933D1*
X707153Y6442137D1*
X716580Y6423637D1*
X722997Y6403890D1*
X726247Y6383383D1*
Y6362617D1*
X722997Y6342110D1*
X716580Y6322363D1*
X707153Y6303863D1*
X694950Y6287067D1*
X680267Y6272383D1*
X663470Y6260180D1*
X644970Y6250753D1*
X631277Y6246043D1*
X644970Y6241247D1*
X663470Y6231820D1*
X680267Y6219617D1*
X694950Y6204933D1*
X707153Y6188137D1*
X716580Y6169637D1*
X722997Y6149890D1*
X726247Y6129383D1*
Y6108617D1*
X722997Y6088110D1*
X716580Y6068363D1*
X707153Y6049863D1*
X694950Y6033067D1*
X680267Y6018383D1*
X663470Y6006180D1*
X644970Y5996753D1*
X631277Y5992043D1*
X644970Y5987247D1*
X663470Y5977820D1*
X680267Y5965617D1*
X694950Y5950933D1*
X707153Y5934137D1*
X716580Y5915637D1*
X722997Y5895890D1*
X726247Y5875383D1*
Y5854617D1*
X722997Y5834110D1*
X716580Y5814363D1*
X707153Y5795863D1*
X694950Y5779067D1*
X680267Y5764383D1*
X663470Y5752180D1*
X644970Y5742753D1*
X631277Y5738043D1*
X644970Y5733247D1*
X663470Y5723820D1*
X680267Y5711617D1*
X694950Y5696933D1*
X707153Y5680137D1*
X716580Y5661637D1*
X722997Y5641890D1*
X726247Y5621383D1*
Y5600617D1*
X722997Y5580110D1*
X716580Y5560363D1*
X707153Y5541863D1*
X694950Y5525067D1*
X680267Y5510383D1*
X663470Y5498180D1*
X644970Y5488753D1*
X631277Y5484043D1*
X644970Y5479247D1*
X663470Y5469820D1*
X680267Y5457617D1*
X694950Y5442933D1*
X707153Y5426137D1*
X716580Y5407637D1*
X722997Y5387890D1*
X726247Y5367383D1*
Y5346617D1*
X722997Y5326110D1*
X716580Y5306363D1*
X707153Y5287863D1*
X694950Y5271067D1*
X680267Y5256383D1*
X663470Y5244180D1*
X644970Y5234753D1*
X631277Y5230043D1*
X644970Y5225247D1*
X663470Y5215820D1*
X680267Y5203617D1*
X694950Y5188933D1*
X707153Y5172137D1*
X716580Y5153637D1*
X722997Y5133890D1*
X726247Y5113383D1*
Y5092617D1*
X722997Y5072110D1*
X716580Y5052363D1*
X707153Y5033863D1*
X694950Y5017067D1*
X680267Y5002383D1*
X663470Y4990180D1*
X644970Y4980753D1*
X631277Y4976043D1*
X644970Y4971247D1*
X663470Y4961820D1*
X680267Y4949617D1*
X694950Y4934933D1*
X707153Y4918137D1*
X716580Y4899637D1*
X722997Y4879890D1*
X726247Y4859383D1*
Y4838617D1*
X722997Y4818110D1*
X716580Y4798363D1*
X707153Y4779863D1*
X694950Y4763067D1*
X680267Y4748383D1*
X663470Y4736180D1*
X644970Y4726753D1*
X631277Y4722043D1*
X644970Y4717247D1*
X663470Y4707820D1*
X680267Y4695617D1*
X694950Y4680933D1*
X707153Y4664137D1*
X716580Y4645637D1*
X722997Y4625890D1*
X726247Y4605383D1*
Y4584617D1*
X722997Y4564110D1*
X716580Y4544363D1*
X707153Y4525863D1*
X694950Y4509067D1*
X680267Y4494383D1*
X663470Y4482180D1*
X644970Y4472753D1*
X631277Y4468043D1*
X644970Y4463247D1*
X663470Y4453820D1*
X680267Y4441617D1*
X694950Y4426933D1*
X707153Y4410137D1*
X716580Y4391637D1*
X719600Y4383450D1*
X782747Y4383420D1*
X801557Y4402177D1*
X801580Y6481813D1*
X788143Y6493143D1*
X777787Y6505270D1*
X769457Y6518867D1*
X763353Y6533597D1*
X759630Y6549103D1*
X758380Y6565000D1*
X759630Y6580897D1*
X763353Y6596403D1*
X769457Y6611133D1*
X777787Y6624730D1*
X788143Y6636857D1*
X800270Y6647213D1*
X813867Y6655543D1*
X828597Y6661647D1*
X844103Y6665370D1*
X860000Y6666620D1*
X875897Y6665370D1*
X891403Y6661647D1*
X906133Y6655543D1*
X919730Y6647213D1*
X931857Y6636857D1*
X942213Y6624730D1*
X950543Y6611133D1*
X956647Y6596403D1*
X960370Y6580897D1*
X961620Y6565000D1*
X960370Y6549103D1*
X956647Y6533597D1*
X950543Y6518867D1*
X942213Y6505270D1*
X931857Y6493143D1*
X919730Y6482787D1*
X918410Y6481903D1*
X918240Y4373417D1*
X916807Y4364363D1*
X913973Y4355643D1*
X909810Y4347477D1*
X904423Y4340060D1*
X848310Y4283690D1*
X841340Y4277737D1*
X833523Y4272947D1*
X825053Y4269440D1*
X816140Y4267300D1*
X807000Y4266580D1*
X703680D1*
X694950Y4255067D1*
X680267Y4240383D1*
X663470Y4228180D1*
X644970Y4218753D1*
X631277Y4214043D1*
X644970Y4209247D1*
X663470Y4199820D1*
X680267Y4187617D1*
X694950Y4172933D1*
X707153Y4156137D1*
X716580Y4137637D1*
X722997Y4117890D1*
X726247Y4097383D1*
Y4076617D1*
X722997Y4056110D1*
X716580Y4036363D1*
X707153Y4017863D1*
X694950Y4001067D1*
X680267Y3986383D1*
X663470Y3974180D1*
X644970Y3964753D1*
X631277Y3960043D1*
X644970Y3955247D1*
X663470Y3945820D1*
X680267Y3933617D1*
X694950Y3918933D1*
X707153Y3902137D1*
X716580Y3883637D1*
X722997Y3863890D1*
X726247Y3843383D1*
Y3822617D1*
X722997Y3802110D1*
X716580Y3782363D1*
X707153Y3763863D1*
X694950Y3747067D1*
X680267Y3732383D1*
X663470Y3720180D1*
X644970Y3710753D1*
X631277Y3706043D1*
X644970Y3701247D1*
X663470Y3691820D1*
X680267Y3679617D1*
X694950Y3664933D1*
X707153Y3648137D1*
X716580Y3629637D1*
X722997Y3609890D1*
X726247Y3589383D1*
Y3568617D1*
X722997Y3548110D1*
X716580Y3528363D1*
X707153Y3509863D1*
X694950Y3493067D1*
X680267Y3478383D1*
X663470Y3466180D1*
X644970Y3456753D1*
X631277Y3452043D1*
X644970Y3447247D1*
X663470Y3437820D1*
X680267Y3425617D1*
X694950Y3410933D1*
X707153Y3394137D1*
X716580Y3375637D1*
X722997Y3355890D1*
X726247Y3335383D1*
Y3314617D1*
X722997Y3294110D1*
X716580Y3274363D1*
X707153Y3255863D1*
X694950Y3239067D1*
X680267Y3224383D1*
X663470Y3212180D1*
X644970Y3202753D1*
X631277Y3198043D1*
X644970Y3193247D1*
X663470Y3183820D1*
X680267Y3171617D1*
X694950Y3156933D1*
X707153Y3140137D1*
X716580Y3121637D1*
X722997Y3101890D1*
X726247Y3081383D1*
Y3060617D1*
X722997Y3040110D1*
X716580Y3020363D1*
X707153Y3001863D1*
X694950Y2985067D1*
X680267Y2970383D1*
X663470Y2958180D1*
X644970Y2948753D1*
X631277Y2944043D1*
X644970Y2939247D1*
X663470Y2929820D1*
X680267Y2917617D1*
X694950Y2902933D1*
X707153Y2886137D1*
X716580Y2867637D1*
X722997Y2847890D1*
X726247Y2827383D1*
Y2806617D1*
X722997Y2786110D1*
X716580Y2766363D1*
X707153Y2747863D1*
X694950Y2731067D1*
X680267Y2716383D1*
X663470Y2704180D1*
X644970Y2694753D1*
X631277Y2690043D1*
X644970Y2685247D1*
X663470Y2675820D1*
X680267Y2663617D1*
X694950Y2648933D1*
X707153Y2632137D1*
X716580Y2613637D1*
X722997Y2593890D1*
X726247Y2573383D1*
Y2552617D1*
X722997Y2532110D1*
X716580Y2512363D1*
X707153Y2493863D1*
X694950Y2477067D1*
X680267Y2462383D1*
X663470Y2450180D1*
X644970Y2440753D1*
X631277Y2436043D1*
X644970Y2431247D1*
X663470Y2421820D1*
X680267Y2409617D1*
X694950Y2394933D1*
X707153Y2378137D1*
X716580Y2359637D1*
X722997Y2339890D1*
X726247Y2319383D1*
Y2298617D1*
X722997Y2278110D1*
X716580Y2258363D1*
X707153Y2239863D1*
X694950Y2223067D1*
X680267Y2208383D1*
X663470Y2196180D1*
X646187Y2187313D1*
X682413Y2186893D1*
X692043Y2184667D1*
X701063Y2180617D1*
X709123Y2174897D1*
X715927Y2167727D1*
X721213Y2159377D1*
X724783Y2150157D1*
X726503Y2140423D1*
X726653Y2070500D1*
X726227Y1966920D1*
X724000Y1957290D1*
X719950Y1948270D1*
X714230Y1940210D1*
X707060Y1933407D1*
X698710Y1928120D1*
X689490Y1924550D1*
X679757Y1922830D1*
X609833Y1922680D1*
X506253Y1923107D1*
X496623Y1925337D1*
X487603Y1929383D1*
X479543Y1935103D1*
X472740Y1942273D1*
X467453Y1950623D1*
X463883Y1959843D1*
X462163Y1969577D1*
X462013Y2003007D1*
X454917Y1988823D1*
X445797Y1975087D1*
X435040Y1962590D1*
X422810Y1951530D1*
X409300Y1942073D1*
X394720Y1934373D1*
X379293Y1928547D1*
X363263Y1924683D1*
X346880Y1922843D1*
X330390Y1923053D1*
X314057Y1925317D1*
X298130Y1929590D1*
X282860Y1935813D1*
X268483Y1943887D1*
X268287Y1851227D1*
X268263Y1729163D1*
X1316590Y1726143D1*
X1345760Y1842080D1*
X1394520Y1950650D1*
X1461250Y2048853D1*
X1544033Y2133963D1*
X1640353Y2203387D1*
X1747273Y2255010D1*
X1861537Y2287263D1*
X1974893Y2298837D1*
X2794673Y2298537D1*
X2635753Y2457473D1*
X2502513Y2457513D1*
Y2477300D1*
X2488540Y2469733D1*
X2476310Y2464773D1*
X2463647Y2461073D1*
X2450673Y2458667D1*
X2437523Y2457580D1*
X2424333Y2457823D1*
X2411230Y2459393D1*
X2398357Y2462277D1*
X2385837Y2466440D1*
X2373800Y2471847D1*
X2362367Y2478433D1*
X2351660Y2486143D1*
X2341780Y2494890D1*
X2332833Y2504587D1*
X2324907Y2515137D1*
X2318087Y2526430D1*
X2312437Y2538353D1*
X2308017Y2550787D1*
X2304873Y2563600D1*
X2303033Y2576667D1*
X2302523Y2589850D1*
X2303340Y2603020D1*
X2305480Y2616040D1*
X2308923Y2628777D1*
X2313630Y2641103D1*
X2319553Y2652893D1*
X2326633Y2664027D1*
X2334803Y2674387D1*
X2343970Y2683877D1*
X2354050Y2692390D1*
X2364937Y2699847D1*
X2376517Y2706170D1*
X2388673Y2711293D1*
X2401287Y2715167D1*
X2414227Y2717750D1*
X2427360Y2719017D1*
X2440553Y2718953D1*
X2453677Y2717563D1*
X2466590Y2714857D1*
X2479167Y2710863D1*
X2491273Y2705623D1*
X2502520Y2699357D1*
X2502513Y2719153D1*
X2519013D1*
X3574003Y2667633D2*
X3581497Y2675837D1*
X3597107Y2689170D1*
X3614610Y2699893D1*
X3618913Y2702167D1*
X3619093Y4462250D1*
X3620527Y4471303D1*
X3623360Y4480023D1*
X3627523Y4488190D1*
X3632910Y4495607D1*
X3717693Y4580647D1*
X3802060Y4664757D1*
X3809477Y4670143D1*
X3817643Y4674307D1*
X3826363Y4677140D1*
X3835417Y4678573D1*
X3955500Y4678753D1*
X4014860D1*
X4020727Y4686330D1*
X4032003Y4697607D1*
X4044903Y4706980D1*
X4059113Y4714217D1*
X4074277Y4719147D1*
X4083620Y4720883D1*
X4069943Y4723187D1*
X4054780Y4728117D1*
X4040570Y4735353D1*
X4027670Y4744727D1*
X4016393Y4756003D1*
X4010570Y4763590D1*
X3833470Y4763580D1*
X3531113Y4461163D1*
X3531087Y2701077D1*
X3542353Y2694877D1*
X3558960Y2682810D1*
X3573477Y2668293D1*
X3573997Y2667633D1*
X1474680Y8138487D2*
X1719820D1*
Y7876847D1*
X1458180D1*
Y8138487D1*
X1474680D1*
X1719417Y7347403D2*
X1716207Y7327127D1*
X1709863Y7307603D1*
X1700543Y7289313D1*
X1688477Y7272707D1*
X1673960Y7258190D1*
X1657353Y7246123D1*
X1639063Y7236803D1*
X1619540Y7230460D1*
X1599263Y7227250D1*
X1578737D1*
X1558460Y7230460D1*
X1538937Y7236803D1*
X1520647Y7246123D1*
X1504040Y7258190D1*
X1489523Y7272707D1*
X1477457Y7289313D1*
X1468137Y7307603D1*
X1461793Y7327127D1*
X1458583Y7347403D1*
Y7367930D1*
X1461793Y7388207D1*
X1468137Y7407730D1*
X1477457Y7426020D1*
X1489523Y7442627D1*
X1504040Y7457143D1*
X1520647Y7469210D1*
X1538937Y7478530D1*
X1558460Y7484873D1*
X1578737Y7488083D1*
X1599263D1*
X1619540Y7484873D1*
X1639063Y7478530D1*
X1657353Y7469210D1*
X1673960Y7457143D1*
X1688477Y7442627D1*
X1700543Y7426020D1*
X1709863Y7407730D1*
X1716207Y7388207D1*
X1719417Y7367930D1*
Y7347403D1*
X462013Y2106983D2*
X462440Y2143080D1*
X464670Y2152710D1*
X468717Y2161730D1*
X474437Y2169790D1*
X481607Y2176593D1*
X489957Y2181880D1*
X499177Y2185450D1*
X508910Y2187170D1*
X542340Y2187320D1*
X525197Y2196180D1*
X508400Y2208383D1*
X493717Y2223067D1*
X481513Y2239863D1*
X472087Y2258363D1*
X467377Y2272057D1*
X462580Y2258363D1*
X453153Y2239863D1*
X440950Y2223067D1*
X426267Y2208383D1*
X409470Y2196180D1*
X390970Y2186753D1*
X377277Y2182043D1*
X391887Y2176863D1*
X406643Y2169507D1*
X420370Y2160370D1*
X432853Y2149597D1*
X443900Y2137353D1*
X453340Y2123833D1*
X461023Y2109243D1*
X462017Y2106963D1*
X467377Y2345943D2*
X472087Y2359637D1*
X481513Y2378137D1*
X493717Y2394933D1*
X508400Y2409617D1*
X525197Y2421820D1*
X543697Y2431247D1*
X557390Y2435957D1*
X543697Y2440753D1*
X525197Y2450180D1*
X508400Y2462383D1*
X493717Y2477067D1*
X481513Y2493863D1*
X472087Y2512363D1*
X467377Y2526057D1*
X462580Y2512363D1*
X453153Y2493863D1*
X440950Y2477067D1*
X426267Y2462383D1*
X409470Y2450180D1*
X390970Y2440753D1*
X377277Y2436043D1*
X390970Y2431247D1*
X409470Y2421820D1*
X426267Y2409617D1*
X440950Y2394933D1*
X453153Y2378137D1*
X462580Y2359637D1*
X467290Y2345943D1*
X467377Y2599943D2*
X472087Y2613637D1*
X481513Y2632137D1*
X493717Y2648933D1*
X508400Y2663617D1*
X525197Y2675820D1*
X543697Y2685247D1*
X557390Y2689957D1*
X543697Y2694753D1*
X525197Y2704180D1*
X508400Y2716383D1*
X493717Y2731067D1*
X481513Y2747863D1*
X472087Y2766363D1*
X467377Y2780057D1*
X462580Y2766363D1*
X453153Y2747863D1*
X440950Y2731067D1*
X426267Y2716383D1*
X409470Y2704180D1*
X390970Y2694753D1*
X377277Y2690043D1*
X390970Y2685247D1*
X409470Y2675820D1*
X426267Y2663617D1*
X440950Y2648933D1*
X453153Y2632137D1*
X462580Y2613637D1*
X467290Y2599943D1*
X467377Y2853943D2*
X472087Y2867637D1*
X481513Y2886137D1*
X493717Y2902933D1*
X508400Y2917617D1*
X525197Y2929820D1*
X543697Y2939247D1*
X557390Y2943957D1*
X543697Y2948753D1*
X525197Y2958180D1*
X508400Y2970383D1*
X493717Y2985067D1*
X481513Y3001863D1*
X472087Y3020363D1*
X467377Y3034057D1*
X462580Y3020363D1*
X453153Y3001863D1*
X440950Y2985067D1*
X426267Y2970383D1*
X409470Y2958180D1*
X390970Y2948753D1*
X377277Y2944043D1*
X390970Y2939247D1*
X409470Y2929820D1*
X426267Y2917617D1*
X440950Y2902933D1*
X453153Y2886137D1*
X462580Y2867637D1*
X467290Y2853943D1*
X467377Y3107943D2*
X472087Y3121637D1*
X481513Y3140137D1*
X493717Y3156933D1*
X508400Y3171617D1*
X525197Y3183820D1*
X543697Y3193247D1*
X557390Y3197957D1*
X543697Y3202753D1*
X525197Y3212180D1*
X508400Y3224383D1*
X493717Y3239067D1*
X481513Y3255863D1*
X472087Y3274363D1*
X467377Y3288057D1*
X462580Y3274363D1*
X453153Y3255863D1*
X440950Y3239067D1*
X426267Y3224383D1*
X409470Y3212180D1*
X390970Y3202753D1*
X377277Y3198043D1*
X390970Y3193247D1*
X409470Y3183820D1*
X426267Y3171617D1*
X440950Y3156933D1*
X453153Y3140137D1*
X462580Y3121637D1*
X467290Y3107943D1*
X467377Y3361943D2*
X472087Y3375637D1*
X481513Y3394137D1*
X493717Y3410933D1*
X508400Y3425617D1*
X525197Y3437820D1*
X543697Y3447247D1*
X557390Y3451957D1*
X543697Y3456753D1*
X525197Y3466180D1*
X508400Y3478383D1*
X493717Y3493067D1*
X481513Y3509863D1*
X472087Y3528363D1*
X467377Y3542057D1*
X462580Y3528363D1*
X453153Y3509863D1*
X440950Y3493067D1*
X426267Y3478383D1*
X409470Y3466180D1*
X390970Y3456753D1*
X377277Y3452043D1*
X390970Y3447247D1*
X409470Y3437820D1*
X426267Y3425617D1*
X440950Y3410933D1*
X453153Y3394137D1*
X462580Y3375637D1*
X467290Y3361943D1*
X467377Y3615943D2*
X472087Y3629637D1*
X481513Y3648137D1*
X493717Y3664933D1*
X508400Y3679617D1*
X525197Y3691820D1*
X543697Y3701247D1*
X557390Y3705957D1*
X543697Y3710753D1*
X525197Y3720180D1*
X508400Y3732383D1*
X493717Y3747067D1*
X481513Y3763863D1*
X472087Y3782363D1*
X467377Y3796057D1*
X462580Y3782363D1*
X453153Y3763863D1*
X440950Y3747067D1*
X426267Y3732383D1*
X409470Y3720180D1*
X390970Y3710753D1*
X377277Y3706043D1*
X390970Y3701247D1*
X409470Y3691820D1*
X426267Y3679617D1*
X440950Y3664933D1*
X453153Y3648137D1*
X462580Y3629637D1*
X467290Y3615943D1*
X467377Y3869943D2*
X472087Y3883637D1*
X481513Y3902137D1*
X493717Y3918933D1*
X508400Y3933617D1*
X525197Y3945820D1*
X543697Y3955247D1*
X557390Y3959957D1*
X543697Y3964753D1*
X525197Y3974180D1*
X508400Y3986383D1*
X493717Y4001067D1*
X481513Y4017863D1*
X472087Y4036363D1*
X467377Y4050057D1*
X462580Y4036363D1*
X453153Y4017863D1*
X440950Y4001067D1*
X426267Y3986383D1*
X409470Y3974180D1*
X390970Y3964753D1*
X377277Y3960043D1*
X390970Y3955247D1*
X409470Y3945820D1*
X426267Y3933617D1*
X440950Y3918933D1*
X453153Y3902137D1*
X462580Y3883637D1*
X467290Y3869943D1*
X467377Y4123943D2*
X472087Y4137637D1*
X481513Y4156137D1*
X493717Y4172933D1*
X508400Y4187617D1*
X525197Y4199820D1*
X543697Y4209247D1*
X557390Y4213957D1*
X543697Y4218753D1*
X525197Y4228180D1*
X508400Y4240383D1*
X493717Y4255067D1*
X481513Y4271863D1*
X472087Y4290363D1*
X467377Y4304057D1*
X462580Y4290363D1*
X453153Y4271863D1*
X440950Y4255067D1*
X426267Y4240383D1*
X409470Y4228180D1*
X390970Y4218753D1*
X377277Y4214043D1*
X390970Y4209247D1*
X409470Y4199820D1*
X426267Y4187617D1*
X440950Y4172933D1*
X453153Y4156137D1*
X462580Y4137637D1*
X467290Y4123943D1*
X467377Y4377943D2*
X472087Y4391637D1*
X481513Y4410137D1*
X493717Y4426933D1*
X508400Y4441617D1*
X525197Y4453820D1*
X543697Y4463247D1*
X557390Y4467957D1*
X543697Y4472753D1*
X525197Y4482180D1*
X508400Y4494383D1*
X493717Y4509067D1*
X481513Y4525863D1*
X472087Y4544363D1*
X467377Y4558057D1*
X462580Y4544363D1*
X453153Y4525863D1*
X440950Y4509067D1*
X426267Y4494383D1*
X409470Y4482180D1*
X390970Y4472753D1*
X377277Y4468043D1*
X390970Y4463247D1*
X409470Y4453820D1*
X426267Y4441617D1*
X440950Y4426933D1*
X453153Y4410137D1*
X462580Y4391637D1*
X467290Y4377943D1*
X467377Y4631943D2*
X472087Y4645637D1*
X481513Y4664137D1*
X493717Y4680933D1*
X508400Y4695617D1*
X525197Y4707820D1*
X543697Y4717247D1*
X557390Y4721957D1*
X543697Y4726753D1*
X525197Y4736180D1*
X508400Y4748383D1*
X493717Y4763067D1*
X481513Y4779863D1*
X472087Y4798363D1*
X467377Y4812057D1*
X462580Y4798363D1*
X453153Y4779863D1*
X440950Y4763067D1*
X426267Y4748383D1*
X409470Y4736180D1*
X390970Y4726753D1*
X377277Y4722043D1*
X390970Y4717247D1*
X409470Y4707820D1*
X426267Y4695617D1*
X440950Y4680933D1*
X453153Y4664137D1*
X462580Y4645637D1*
X467290Y4631943D1*
X467377Y4885943D2*
X472087Y4899637D1*
X481513Y4918137D1*
X493717Y4934933D1*
X508400Y4949617D1*
X525197Y4961820D1*
X543697Y4971247D1*
X557390Y4975957D1*
X543697Y4980753D1*
X525197Y4990180D1*
X508400Y5002383D1*
X493717Y5017067D1*
X481513Y5033863D1*
X472087Y5052363D1*
X467377Y5066057D1*
X462580Y5052363D1*
X453153Y5033863D1*
X440950Y5017067D1*
X426267Y5002383D1*
X409470Y4990180D1*
X390970Y4980753D1*
X377277Y4976043D1*
X390970Y4971247D1*
X409470Y4961820D1*
X426267Y4949617D1*
X440950Y4934933D1*
X453153Y4918137D1*
X462580Y4899637D1*
X467290Y4885943D1*
X467377Y5139943D2*
X472087Y5153637D1*
X481513Y5172137D1*
X493717Y5188933D1*
X508400Y5203617D1*
X525197Y5215820D1*
X543697Y5225247D1*
X557390Y5229957D1*
X543697Y5234753D1*
X525197Y5244180D1*
X508400Y5256383D1*
X493717Y5271067D1*
X481513Y5287863D1*
X472087Y5306363D1*
X467377Y5320057D1*
X462580Y5306363D1*
X453153Y5287863D1*
X440950Y5271067D1*
X426267Y5256383D1*
X409470Y5244180D1*
X390970Y5234753D1*
X377277Y5230043D1*
X390970Y5225247D1*
X409470Y5215820D1*
X426267Y5203617D1*
X440950Y5188933D1*
X453153Y5172137D1*
X462580Y5153637D1*
X467290Y5139943D1*
X467377Y5393943D2*
X472087Y5407637D1*
X481513Y5426137D1*
X493717Y5442933D1*
X508400Y5457617D1*
X525197Y5469820D1*
X543697Y5479247D1*
X557390Y5483957D1*
X543697Y5488753D1*
X525197Y5498180D1*
X508400Y5510383D1*
X493717Y5525067D1*
X481513Y5541863D1*
X472087Y5560363D1*
X467377Y5574057D1*
X462580Y5560363D1*
X453153Y5541863D1*
X440950Y5525067D1*
X426267Y5510383D1*
X409470Y5498180D1*
X390970Y5488753D1*
X377277Y5484043D1*
X390970Y5479247D1*
X409470Y5469820D1*
X426267Y5457617D1*
X440950Y5442933D1*
X453153Y5426137D1*
X462580Y5407637D1*
X467290Y5393943D1*
X467377Y5647943D2*
X472087Y5661637D1*
X481513Y5680137D1*
X493717Y5696933D1*
X508400Y5711617D1*
X525197Y5723820D1*
X543697Y5733247D1*
X557390Y5737957D1*
X543697Y5742753D1*
X525197Y5752180D1*
X508400Y5764383D1*
X493717Y5779067D1*
X481513Y5795863D1*
X472087Y5814363D1*
X467377Y5828057D1*
X462580Y5814363D1*
X453153Y5795863D1*
X440950Y5779067D1*
X426267Y5764383D1*
X409470Y5752180D1*
X390970Y5742753D1*
X377277Y5738043D1*
X390970Y5733247D1*
X409470Y5723820D1*
X426267Y5711617D1*
X440950Y5696933D1*
X453153Y5680137D1*
X462580Y5661637D1*
X467290Y5647943D1*
X467377Y5901943D2*
X472087Y5915637D1*
X481513Y5934137D1*
X493717Y5950933D1*
X508400Y5965617D1*
X525197Y5977820D1*
X543697Y5987247D1*
X557390Y5991957D1*
X543697Y5996753D1*
X525197Y6006180D1*
X508400Y6018383D1*
X493717Y6033067D1*
X481513Y6049863D1*
X472087Y6068363D1*
X467377Y6082057D1*
X462580Y6068363D1*
X453153Y6049863D1*
X440950Y6033067D1*
X426267Y6018383D1*
X409470Y6006180D1*
X390970Y5996753D1*
X377277Y5992043D1*
X390970Y5987247D1*
X409470Y5977820D1*
X426267Y5965617D1*
X440950Y5950933D1*
X453153Y5934137D1*
X462580Y5915637D1*
X467290Y5901943D1*
X467377Y6155943D2*
X472087Y6169637D1*
X481513Y6188137D1*
X493717Y6204933D1*
X508400Y6219617D1*
X525197Y6231820D1*
X543697Y6241247D1*
X557390Y6245957D1*
X543697Y6250753D1*
X525197Y6260180D1*
X508400Y6272383D1*
X493717Y6287067D1*
X481513Y6303863D1*
X472087Y6322363D1*
X467377Y6336057D1*
X462580Y6322363D1*
X453153Y6303863D1*
X440950Y6287067D1*
X426267Y6272383D1*
X409470Y6260180D1*
X390970Y6250753D1*
X377277Y6246043D1*
X390970Y6241247D1*
X409470Y6231820D1*
X426267Y6219617D1*
X440950Y6204933D1*
X453153Y6188137D1*
X462580Y6169637D1*
X467290Y6155943D1*
X467377Y6409943D2*
X472087Y6423637D1*
X481513Y6442137D1*
X493717Y6458933D1*
X508400Y6473617D1*
X525197Y6485820D1*
X543697Y6495247D1*
X557390Y6499957D1*
X543697Y6504753D1*
X525197Y6514180D1*
X508400Y6526383D1*
X493717Y6541067D1*
X481513Y6557863D1*
X472087Y6576363D1*
X467377Y6590057D1*
X462580Y6576363D1*
X453153Y6557863D1*
X440950Y6541067D1*
X426267Y6526383D1*
X409470Y6514180D1*
X390970Y6504753D1*
X377277Y6500043D1*
X390970Y6495247D1*
X409470Y6485820D1*
X426267Y6473617D1*
X440950Y6458933D1*
X453153Y6442137D1*
X462580Y6423637D1*
X467290Y6409943D1*
X467377Y6663943D2*
X472087Y6677637D1*
X481513Y6696137D1*
X493717Y6712933D1*
X508400Y6727617D1*
X525197Y6739820D1*
X543697Y6749247D1*
X557390Y6753957D1*
X543697Y6758753D1*
X525197Y6768180D1*
X508400Y6780383D1*
X493717Y6795067D1*
X481513Y6811863D1*
X472087Y6830363D1*
X467377Y6844057D1*
X462580Y6830363D1*
X453153Y6811863D1*
X440950Y6795067D1*
X426267Y6780383D1*
X409470Y6768180D1*
X390970Y6758753D1*
X377277Y6754043D1*
X390970Y6749247D1*
X409470Y6739820D1*
X426267Y6727617D1*
X440950Y6712933D1*
X453153Y6696137D1*
X462580Y6677637D1*
X467290Y6663943D1*
X467377Y6917943D2*
X472087Y6931637D1*
X481513Y6950137D1*
X493717Y6966933D1*
X508400Y6981617D1*
X525197Y6993820D1*
X543697Y7003247D1*
X557390Y7007957D1*
X543697Y7012753D1*
X525197Y7022180D1*
X508400Y7034383D1*
X493717Y7049067D1*
X481513Y7065863D1*
X472087Y7084363D1*
X467377Y7098057D1*
X462580Y7084363D1*
X453153Y7065863D1*
X440950Y7049067D1*
X426267Y7034383D1*
X409470Y7022180D1*
X390970Y7012753D1*
X377277Y7008043D1*
X390970Y7003247D1*
X409470Y6993820D1*
X426267Y6981617D1*
X440950Y6966933D1*
X453153Y6950137D1*
X462580Y6931637D1*
X467290Y6917943D1*
X467377Y7171943D2*
X472087Y7185637D1*
X481513Y7204137D1*
X493717Y7220933D1*
X508400Y7235617D1*
X525197Y7247820D1*
X543697Y7257247D1*
X557390Y7261957D1*
X543697Y7266753D1*
X525197Y7276180D1*
X508400Y7288383D1*
X493717Y7303067D1*
X481513Y7319863D1*
X472087Y7338363D1*
X467377Y7352057D1*
X462580Y7338363D1*
X453153Y7319863D1*
X440950Y7303067D1*
X426267Y7288383D1*
X409470Y7276180D1*
X390970Y7266753D1*
X377277Y7262043D1*
X390970Y7257247D1*
X409470Y7247820D1*
X426267Y7235617D1*
X440950Y7220933D1*
X453153Y7204137D1*
X462580Y7185637D1*
X467290Y7171943D1*
X467377Y7425943D2*
X472087Y7439637D1*
X481513Y7458137D1*
X493717Y7474933D1*
X508400Y7489617D1*
X525197Y7501820D1*
X543697Y7511247D1*
X557390Y7515957D1*
X543697Y7520753D1*
X525197Y7530180D1*
X508400Y7542383D1*
X493717Y7557067D1*
X481513Y7573863D1*
X472087Y7592363D1*
X467377Y7606057D1*
X462580Y7592363D1*
X453153Y7573863D1*
X440950Y7557067D1*
X426267Y7542383D1*
X409470Y7530180D1*
X390970Y7520753D1*
X377277Y7516043D1*
X390970Y7511247D1*
X409470Y7501820D1*
X426267Y7489617D1*
X440950Y7474933D1*
X453153Y7458137D1*
X462580Y7439637D1*
X467290Y7425943D1*
X5288013Y1973563D2*
Y2003007D1*
X5280917Y1988823D1*
X5271797Y1975087D1*
X5261040Y1962590D1*
X5248810Y1951530D1*
X5235300Y1942073D1*
X5220720Y1934373D1*
X5205293Y1928547D1*
X5189263Y1924683D1*
X5172880Y1922843D1*
X5156390Y1923053D1*
X5140057Y1925317D1*
X5124130Y1929590D1*
X5108860Y1935813D1*
X5094483Y1943887D1*
X5081223Y1953687D1*
X5069283Y1965057D1*
X5058850Y1977827D1*
X5050087Y1991793D1*
X5043127Y2006743D1*
X5038080Y2022443D1*
X5035027Y2038647D1*
X5034013Y2055103D1*
X5035053Y2071560D1*
X5038133Y2087760D1*
X5043203Y2103450D1*
X5050183Y2118390D1*
X5058970Y2132343D1*
X5069423Y2145097D1*
X5081383Y2156450D1*
X5094660Y2166227D1*
X5109050Y2174277D1*
X5124330Y2180477D1*
X5129217Y2181997D1*
X5115697Y2186753D1*
X5097197Y2196180D1*
X5080400Y2208383D1*
X5065717Y2223067D1*
X5053513Y2239863D1*
X5044087Y2258363D1*
X5037670Y2278110D1*
X5034420Y2298617D1*
Y2319383D1*
X5037670Y2339890D1*
X5044087Y2359637D1*
X5053513Y2378137D1*
X5065717Y2394933D1*
X5080400Y2409617D1*
X5097197Y2421820D1*
X5115697Y2431247D1*
X5129390Y2435957D1*
X5115697Y2440753D1*
X5097197Y2450180D1*
X5080400Y2462383D1*
X5070207Y2472207D1*
X4745907Y2472180D1*
X4550317Y2276940D1*
X4538787Y2268563D1*
X4526090Y2262093D1*
X4512533Y2257690D1*
X4498460Y2255460D1*
X4441833Y2255180D1*
X4009417D1*
X4058833Y2236637D1*
X4156207Y2180917D1*
X4243280Y2110173D1*
X4317757Y2026273D1*
X4377673Y1931427D1*
X4421453Y1828133D1*
X4446550Y1725710D1*
X5495473Y1727953D1*
X5495233Y1922680D1*
X5335537Y1922787D1*
X5325780Y1924383D1*
X5316520Y1927840D1*
X5308103Y1933023D1*
X5300850Y1939737D1*
X5295033Y1947727D1*
X5290873Y1956693D1*
X5288527Y1966297D1*
X5288017Y1972883D1*
X5288013Y2106983D2*
X5288440Y2143080D1*
X5290667Y2152710D1*
X5294717Y2161730D1*
X5300437Y2169790D1*
X5307607Y2176593D1*
X5315957Y2181880D1*
X5325177Y2185450D1*
X5334910Y2187170D1*
X5368340Y2187320D1*
X5351197Y2196180D1*
X5334400Y2208383D1*
X5319717Y2223067D1*
X5307513Y2239863D1*
X5298087Y2258363D1*
X5293377Y2272057D1*
X5288580Y2258363D1*
X5279153Y2239863D1*
X5266950Y2223067D1*
X5252267Y2208383D1*
X5235470Y2196180D1*
X5216970Y2186753D1*
X5203277Y2182043D1*
X5217887Y2176863D1*
X5232643Y2169507D1*
X5246370Y2160370D1*
X5258853Y2149597D1*
X5269900Y2137353D1*
X5279340Y2123833D1*
X5287023Y2109243D1*
X5288017Y2106963D1*
X5293377Y2345943D2*
X5298087Y2359637D1*
X5307513Y2378137D1*
X5319717Y2394933D1*
X5334400Y2409617D1*
X5351197Y2421820D1*
X5369697Y2431247D1*
X5383390Y2435957D1*
X5369697Y2440753D1*
X5351197Y2450180D1*
X5334400Y2462383D1*
X5319717Y2477067D1*
X5307513Y2493863D1*
X5298087Y2512363D1*
X5293377Y2526057D1*
X5288580Y2512363D1*
X5279153Y2493863D1*
X5266950Y2477067D1*
X5252267Y2462383D1*
X5235470Y2450180D1*
X5216970Y2440753D1*
X5203277Y2436043D1*
X5216970Y2431247D1*
X5235470Y2421820D1*
X5252267Y2409617D1*
X5266950Y2394933D1*
X5279153Y2378137D1*
X5288580Y2359637D1*
X5293290Y2345943D1*
X5293377Y2599943D2*
X5298087Y2613637D1*
X5307513Y2632137D1*
X5319717Y2648933D1*
X5334400Y2663617D1*
X5351197Y2675820D1*
X5369697Y2685247D1*
X5383390Y2689957D1*
X5369697Y2694753D1*
X5351197Y2704180D1*
X5334400Y2716383D1*
X5319717Y2731067D1*
X5315670Y2736197D1*
X5271123Y2736180D1*
X5259897Y2723437D1*
X5244110Y2709950D1*
X5226407Y2699103D1*
X5207223Y2691157D1*
X5203277Y2690043D1*
X5216970Y2685247D1*
X5235470Y2675820D1*
X5252267Y2663617D1*
X5266950Y2648933D1*
X5279153Y2632137D1*
X5288580Y2613637D1*
X5293290Y2599943D1*
X5315670Y2897803D2*
X5326770Y2910563D1*
X5342557Y2924050D1*
X5360260Y2934897D1*
X5379443Y2942843D1*
X5383390Y2943957D1*
X5369697Y2948753D1*
X5351197Y2958180D1*
X5334400Y2970383D1*
X5319717Y2985067D1*
X5307513Y3001863D1*
X5298087Y3020363D1*
X5293377Y3034057D1*
X5288580Y3020363D1*
X5279153Y3001863D1*
X5266950Y2985067D1*
X5252267Y2970383D1*
X5235470Y2958180D1*
X5216970Y2948753D1*
X5203277Y2944043D1*
X5216970Y2939247D1*
X5235470Y2929820D1*
X5252267Y2917617D1*
X5266950Y2902933D1*
X5270997Y2897803D1*
X5315543Y2897820D1*
X5061670Y2897803D2*
X5072770Y2910563D1*
X5088557Y2924050D1*
X5106260Y2934897D1*
X5125443Y2942843D1*
X5129390Y2943957D1*
X5115697Y2948753D1*
X5097197Y2958180D1*
X5080400Y2970383D1*
X5065717Y2985067D1*
X5053513Y3001863D1*
X5044087Y3020363D1*
X5037670Y3040110D1*
X5034420Y3060617D1*
Y3081383D1*
X5037670Y3101890D1*
X5044087Y3121637D1*
X5053513Y3140137D1*
X5065717Y3156933D1*
X5080400Y3171617D1*
X5097197Y3183820D1*
X5115697Y3193247D1*
X5129390Y3197957D1*
X5115697Y3202753D1*
X5097197Y3212180D1*
X5080400Y3224383D1*
X5065717Y3239067D1*
X5053513Y3255863D1*
X5044087Y3274363D1*
X5037670Y3294110D1*
X5034420Y3314617D1*
Y3335383D1*
X5037670Y3355890D1*
X5044087Y3375637D1*
X5053513Y3394137D1*
X5065717Y3410933D1*
X5080400Y3425617D1*
X5097197Y3437820D1*
X5115697Y3447247D1*
X5129390Y3451957D1*
X5115697Y3456753D1*
X5097197Y3466180D1*
X5080400Y3478383D1*
X5065717Y3493067D1*
X5053513Y3509863D1*
X5044087Y3528363D1*
X5037670Y3548110D1*
X5034420Y3568617D1*
Y3589383D1*
X5037670Y3609890D1*
X5044087Y3629637D1*
X5053513Y3648137D1*
X5065717Y3664933D1*
X5080400Y3679617D1*
X5097197Y3691820D1*
X5115697Y3701247D1*
X5129390Y3705957D1*
X5115697Y3710753D1*
X5097197Y3720180D1*
X5080400Y3732383D1*
X5065717Y3747067D1*
X5053513Y3763863D1*
X5044087Y3782363D1*
X5037670Y3802110D1*
X5034420Y3822617D1*
Y3843383D1*
X5037670Y3863890D1*
X5044087Y3883637D1*
X5053513Y3902137D1*
X5065717Y3918933D1*
X5080400Y3933617D1*
X5097197Y3945820D1*
X5115697Y3955247D1*
X5129390Y3959957D1*
X5115697Y3964753D1*
X5097197Y3974180D1*
X5080400Y3986383D1*
X5065717Y4001067D1*
X5053513Y4017863D1*
X5044087Y4036363D1*
X5037670Y4056110D1*
X5034420Y4076617D1*
Y4097383D1*
X5037670Y4117890D1*
X5044087Y4137637D1*
X5053513Y4156137D1*
X5065717Y4172933D1*
X5080400Y4187617D1*
X5097197Y4199820D1*
X5115697Y4209247D1*
X5129390Y4213957D1*
X5115697Y4218753D1*
X5097197Y4228180D1*
X5080400Y4240383D1*
X5065717Y4255067D1*
X5053513Y4271863D1*
X5044087Y4290363D1*
X5037670Y4310110D1*
X5034420Y4330617D1*
Y4351383D1*
X5037670Y4371890D1*
X5044087Y4391637D1*
X5053513Y4410137D1*
X5059030Y4418527D1*
X5050310Y4421360D1*
X5042143Y4425523D1*
X5034727Y4430910D1*
X4949687Y4515693D1*
X4940800Y4524583D1*
X4931307Y4523360D1*
X4915360D1*
X4899610Y4525853D1*
X4884447Y4530783D1*
X4870237Y4538020D1*
X4857337Y4547393D1*
X4846060Y4558670D1*
X4836687Y4571570D1*
X4829450Y4585780D1*
X4827820Y4590193D1*
Y3090460D1*
X5020493Y2897803D1*
X5061573Y2897820D1*
X5293377Y3107943D2*
X5298087Y3121637D1*
X5307513Y3140137D1*
X5319717Y3156933D1*
X5334400Y3171617D1*
X5351197Y3183820D1*
X5369697Y3193247D1*
X5383390Y3197957D1*
X5369697Y3202753D1*
X5351197Y3212180D1*
X5334400Y3224383D1*
X5319717Y3239067D1*
X5307513Y3255863D1*
X5298087Y3274363D1*
X5293377Y3288057D1*
X5288580Y3274363D1*
X5279153Y3255863D1*
X5266950Y3239067D1*
X5252267Y3224383D1*
X5235470Y3212180D1*
X5216970Y3202753D1*
X5203277Y3198043D1*
X5216970Y3193247D1*
X5235470Y3183820D1*
X5252267Y3171617D1*
X5266950Y3156933D1*
X5279153Y3140137D1*
X5288580Y3121637D1*
X5293290Y3107943D1*
X5293377Y3361943D2*
X5298087Y3375637D1*
X5307513Y3394137D1*
X5319717Y3410933D1*
X5334400Y3425617D1*
X5351197Y3437820D1*
X5369697Y3447247D1*
X5383390Y3451957D1*
X5369697Y3456753D1*
X5351197Y3466180D1*
X5334400Y3478383D1*
X5319717Y3493067D1*
X5307513Y3509863D1*
X5298087Y3528363D1*
X5293377Y3542057D1*
X5288580Y3528363D1*
X5279153Y3509863D1*
X5266950Y3493067D1*
X5252267Y3478383D1*
X5235470Y3466180D1*
X5216970Y3456753D1*
X5203277Y3452043D1*
X5216970Y3447247D1*
X5235470Y3437820D1*
X5252267Y3425617D1*
X5266950Y3410933D1*
X5279153Y3394137D1*
X5288580Y3375637D1*
X5293290Y3361943D1*
X5293377Y3615943D2*
X5298087Y3629637D1*
X5307513Y3648137D1*
X5319717Y3664933D1*
X5334400Y3679617D1*
X5351197Y3691820D1*
X5369697Y3701247D1*
X5383390Y3705957D1*
X5369697Y3710753D1*
X5351197Y3720180D1*
X5334400Y3732383D1*
X5319717Y3747067D1*
X5307513Y3763863D1*
X5298087Y3782363D1*
X5293377Y3796057D1*
X5288580Y3782363D1*
X5279153Y3763863D1*
X5266950Y3747067D1*
X5252267Y3732383D1*
X5235470Y3720180D1*
X5216970Y3710753D1*
X5203277Y3706043D1*
X5216970Y3701247D1*
X5235470Y3691820D1*
X5252267Y3679617D1*
X5266950Y3664933D1*
X5279153Y3648137D1*
X5288580Y3629637D1*
X5293290Y3615943D1*
X5293377Y3869943D2*
X5298087Y3883637D1*
X5307513Y3902137D1*
X5319717Y3918933D1*
X5334400Y3933617D1*
X5351197Y3945820D1*
X5369697Y3955247D1*
X5383390Y3959957D1*
X5369697Y3964753D1*
X5351197Y3974180D1*
X5334400Y3986383D1*
X5319717Y4001067D1*
X5307513Y4017863D1*
X5298087Y4036363D1*
X5293377Y4050057D1*
X5288580Y4036363D1*
X5279153Y4017863D1*
X5266950Y4001067D1*
X5252267Y3986383D1*
X5235470Y3974180D1*
X5216970Y3964753D1*
X5203277Y3960043D1*
X5216970Y3955247D1*
X5235470Y3945820D1*
X5252267Y3933617D1*
X5266950Y3918933D1*
X5279153Y3902137D1*
X5288580Y3883637D1*
X5293290Y3869943D1*
X5293377Y4123943D2*
X5298087Y4137637D1*
X5307513Y4156137D1*
X5319717Y4172933D1*
X5334400Y4187617D1*
X5351197Y4199820D1*
X5369697Y4209247D1*
X5383390Y4213957D1*
X5369697Y4218753D1*
X5351197Y4228180D1*
X5334400Y4240383D1*
X5319717Y4255067D1*
X5307513Y4271863D1*
X5298087Y4290363D1*
X5293377Y4304057D1*
X5288580Y4290363D1*
X5279153Y4271863D1*
X5266950Y4255067D1*
X5252267Y4240383D1*
X5235470Y4228180D1*
X5216970Y4218753D1*
X5203277Y4214043D1*
X5216970Y4209247D1*
X5235470Y4199820D1*
X5252267Y4187617D1*
X5266950Y4172933D1*
X5279153Y4156137D1*
X5288580Y4137637D1*
X5293290Y4123943D1*
X5293377Y4631943D2*
X5298087Y4645637D1*
X5307513Y4664137D1*
X5319717Y4680933D1*
X5334400Y4695617D1*
X5351197Y4707820D1*
X5369697Y4717247D1*
X5383390Y4721957D1*
X5369697Y4726753D1*
X5351197Y4736180D1*
X5334400Y4748383D1*
X5319717Y4763067D1*
X5307513Y4779863D1*
X5298087Y4798363D1*
X5293377Y4812057D1*
X5288580Y4798363D1*
X5279153Y4779863D1*
X5266950Y4763067D1*
X5252267Y4748383D1*
X5235470Y4736180D1*
X5216970Y4726753D1*
X5203277Y4722043D1*
X5216970Y4717247D1*
X5235470Y4707820D1*
X5252267Y4695617D1*
X5266950Y4680933D1*
X5279153Y4664137D1*
X5288580Y4645637D1*
X5293290Y4631943D1*
X5293377Y4885943D2*
X5298087Y4899637D1*
X5307513Y4918137D1*
X5319717Y4934933D1*
X5334400Y4949617D1*
X5351197Y4961820D1*
X5369697Y4971247D1*
X5383390Y4975957D1*
X5369697Y4980753D1*
X5351197Y4990180D1*
X5334400Y5002383D1*
X5319717Y5017067D1*
X5307513Y5033863D1*
X5298087Y5052363D1*
X5293377Y5066057D1*
X5288580Y5052363D1*
X5279153Y5033863D1*
X5266950Y5017067D1*
X5252267Y5002383D1*
X5235470Y4990180D1*
X5216970Y4980753D1*
X5203277Y4976043D1*
X5216970Y4971247D1*
X5235470Y4961820D1*
X5252267Y4949617D1*
X5266950Y4934933D1*
X5279153Y4918137D1*
X5288580Y4899637D1*
X5293290Y4885943D1*
X5293377Y5139943D2*
X5298087Y5153637D1*
X5307513Y5172137D1*
X5319717Y5188933D1*
X5334400Y5203617D1*
X5351197Y5215820D1*
X5369697Y5225247D1*
X5383390Y5229957D1*
X5369697Y5234753D1*
X5351197Y5244180D1*
X5334400Y5256383D1*
X5319717Y5271067D1*
X5307513Y5287863D1*
X5298087Y5306363D1*
X5293377Y5320057D1*
X5288580Y5306363D1*
X5279153Y5287863D1*
X5266950Y5271067D1*
X5252267Y5256383D1*
X5235470Y5244180D1*
X5216970Y5234753D1*
X5203277Y5230043D1*
X5216970Y5225247D1*
X5235470Y5215820D1*
X5252267Y5203617D1*
X5266950Y5188933D1*
X5279153Y5172137D1*
X5288580Y5153637D1*
X5293290Y5139943D1*
X5293377Y5393943D2*
X5298087Y5407637D1*
X5307513Y5426137D1*
X5319717Y5442933D1*
X5334400Y5457617D1*
X5351197Y5469820D1*
X5369697Y5479247D1*
X5383390Y5483957D1*
X5369697Y5488753D1*
X5351197Y5498180D1*
X5334400Y5510383D1*
X5319717Y5525067D1*
X5307513Y5541863D1*
X5298087Y5560363D1*
X5293377Y5574057D1*
X5288580Y5560363D1*
X5279153Y5541863D1*
X5266950Y5525067D1*
X5252267Y5510383D1*
X5235470Y5498180D1*
X5216970Y5488753D1*
X5203277Y5484043D1*
X5216970Y5479247D1*
X5235470Y5469820D1*
X5252267Y5457617D1*
X5266950Y5442933D1*
X5279153Y5426137D1*
X5288580Y5407637D1*
X5293290Y5393943D1*
X5293377Y5647943D2*
X5298087Y5661637D1*
X5307513Y5680137D1*
X5319717Y5696933D1*
X5334400Y5711617D1*
X5351197Y5723820D1*
X5369697Y5733247D1*
X5383390Y5737957D1*
X5369697Y5742753D1*
X5351197Y5752180D1*
X5334400Y5764383D1*
X5319717Y5779067D1*
X5307513Y5795863D1*
X5298087Y5814363D1*
X5293377Y5828057D1*
X5288580Y5814363D1*
X5279153Y5795863D1*
X5266950Y5779067D1*
X5252267Y5764383D1*
X5235470Y5752180D1*
X5216970Y5742753D1*
X5203277Y5738043D1*
X5216970Y5733247D1*
X5235470Y5723820D1*
X5252267Y5711617D1*
X5266950Y5696933D1*
X5279153Y5680137D1*
X5288580Y5661637D1*
X5293290Y5647943D1*
X5293377Y5901943D2*
X5298087Y5915637D1*
X5307513Y5934137D1*
X5319717Y5950933D1*
X5334400Y5965617D1*
X5351197Y5977820D1*
X5369697Y5987247D1*
X5383390Y5991957D1*
X5369697Y5996753D1*
X5351197Y6006180D1*
X5334400Y6018383D1*
X5319717Y6033067D1*
X5307513Y6049863D1*
X5298087Y6068363D1*
X5293377Y6082057D1*
X5288580Y6068363D1*
X5279153Y6049863D1*
X5266950Y6033067D1*
X5252267Y6018383D1*
X5235470Y6006180D1*
X5216970Y5996753D1*
X5203277Y5992043D1*
X5216970Y5987247D1*
X5235470Y5977820D1*
X5252267Y5965617D1*
X5266950Y5950933D1*
X5279153Y5934137D1*
X5288580Y5915637D1*
X5293290Y5901943D1*
X5293377Y6155943D2*
X5298087Y6169637D1*
X5307513Y6188137D1*
X5319717Y6204933D1*
X5334400Y6219617D1*
X5351197Y6231820D1*
X5369697Y6241247D1*
X5383390Y6245957D1*
X5369697Y6250753D1*
X5351197Y6260180D1*
X5334400Y6272383D1*
X5319717Y6287067D1*
X5307513Y6303863D1*
X5298087Y6322363D1*
X5293377Y6336057D1*
X5288580Y6322363D1*
X5279153Y6303863D1*
X5266950Y6287067D1*
X5252267Y6272383D1*
X5235470Y6260180D1*
X5216970Y6250753D1*
X5203277Y6246043D1*
X5216970Y6241247D1*
X5235470Y6231820D1*
X5252267Y6219617D1*
X5266950Y6204933D1*
X5279153Y6188137D1*
X5288580Y6169637D1*
X5293290Y6155943D1*
X5293377Y6409943D2*
X5298087Y6423637D1*
X5307513Y6442137D1*
X5319717Y6458933D1*
X5334400Y6473617D1*
X5351197Y6485820D1*
X5369697Y6495247D1*
X5383390Y6499957D1*
X5369697Y6504753D1*
X5351197Y6514180D1*
X5334400Y6526383D1*
X5319717Y6541067D1*
X5307513Y6557863D1*
X5298087Y6576363D1*
X5293377Y6590057D1*
X5288580Y6576363D1*
X5279153Y6557863D1*
X5266950Y6541067D1*
X5252267Y6526383D1*
X5235470Y6514180D1*
X5216970Y6504753D1*
X5203277Y6500043D1*
X5216970Y6495247D1*
X5235470Y6485820D1*
X5252267Y6473617D1*
X5266950Y6458933D1*
X5279153Y6442137D1*
X5288580Y6423637D1*
X5293290Y6409943D1*
X5293377Y6663943D2*
X5298087Y6677637D1*
X5307513Y6696137D1*
X5319717Y6712933D1*
X5334400Y6727617D1*
X5351197Y6739820D1*
X5369697Y6749247D1*
X5383390Y6753957D1*
X5369697Y6758753D1*
X5351197Y6768180D1*
X5334400Y6780383D1*
X5319717Y6795067D1*
X5307513Y6811863D1*
X5298087Y6830363D1*
X5293377Y6844057D1*
X5288580Y6830363D1*
X5279153Y6811863D1*
X5266950Y6795067D1*
X5252267Y6780383D1*
X5235470Y6768180D1*
X5216970Y6758753D1*
X5203277Y6754043D1*
X5216970Y6749247D1*
X5235470Y6739820D1*
X5252267Y6727617D1*
X5266950Y6712933D1*
X5279153Y6696137D1*
X5288580Y6677637D1*
X5293290Y6663943D1*
X5293377Y6917943D2*
X5298087Y6931637D1*
X5307513Y6950137D1*
X5319717Y6966933D1*
X5334400Y6981617D1*
X5351197Y6993820D1*
X5369697Y7003247D1*
X5383390Y7007957D1*
X5369697Y7012753D1*
X5351197Y7022180D1*
X5334400Y7034383D1*
X5319717Y7049067D1*
X5307513Y7065863D1*
X5298087Y7084363D1*
X5293377Y7098057D1*
X5288580Y7084363D1*
X5279153Y7065863D1*
X5266950Y7049067D1*
X5252267Y7034383D1*
X5235470Y7022180D1*
X5216970Y7012753D1*
X5203277Y7008043D1*
X5216970Y7003247D1*
X5235470Y6993820D1*
X5252267Y6981617D1*
X5266950Y6966933D1*
X5279153Y6950137D1*
X5288580Y6931637D1*
X5293290Y6917943D1*
X5293377Y7171943D2*
X5298087Y7185637D1*
X5307513Y7204137D1*
X5319717Y7220933D1*
X5334400Y7235617D1*
X5351197Y7247820D1*
X5369697Y7257247D1*
X5383390Y7261957D1*
X5369697Y7266753D1*
X5351197Y7276180D1*
X5334400Y7288383D1*
X5319717Y7303067D1*
X5307513Y7319863D1*
X5298087Y7338363D1*
X5293377Y7352057D1*
X5288257Y7337590D1*
X5280917Y7322823D1*
X5271797Y7309087D1*
X5261040Y7296590D1*
X5248810Y7285530D1*
X5235300Y7276073D1*
X5220720Y7268373D1*
X5205293Y7262547D1*
X5203453Y7262003D1*
X5216970Y7257247D1*
X5235470Y7247820D1*
X5252267Y7235617D1*
X5266950Y7220933D1*
X5279153Y7204137D1*
X5288580Y7185637D1*
X5293290Y7171943D1*
X5293377Y7425943D2*
X5298087Y7439637D1*
X5307513Y7458137D1*
X5319717Y7474933D1*
X5334400Y7489617D1*
X5351197Y7501820D1*
X5369697Y7511247D1*
X5383390Y7515957D1*
X5368877Y7521097D1*
X5354113Y7528443D1*
X5340380Y7537567D1*
X5327887Y7548330D1*
X5316830Y7560563D1*
X5307380Y7574077D1*
X5299687Y7588660D1*
X5293863Y7604090D1*
X5293337Y7605880D1*
X5288257Y7591590D1*
X5280917Y7576823D1*
X5271797Y7563087D1*
X5261040Y7550590D1*
X5248810Y7539530D1*
X5235300Y7530073D1*
X5220720Y7522373D1*
X5205293Y7516547D1*
X5203453Y7516003D1*
X5217887Y7510863D1*
X5232643Y7503507D1*
X5246370Y7494370D1*
X5258853Y7483597D1*
X5269900Y7471353D1*
X5279340Y7457833D1*
X5287023Y7443243D1*
X5292833Y7427813D1*
X5293330Y7426117D1*
X1462513Y3097073D2*
X1462337Y5587060D1*
X1451060Y5598337D1*
X1441687Y5611237D1*
X1434450Y5625447D1*
X1429520Y5640610D1*
X1427027Y5656360D1*
Y5672307D1*
X1429520Y5688057D1*
X1434450Y5703220D1*
X1441687Y5717430D1*
X1451060Y5730330D1*
X1462337Y5741607D1*
X1475237Y5750980D1*
X1489447Y5758217D1*
X1504610Y5763147D1*
X1520360Y5765640D1*
X1536307D1*
X1552057Y5763147D1*
X1567220Y5758217D1*
X1581430Y5750980D1*
X1594330Y5741607D1*
X1605607Y5730330D1*
X1614980Y5717430D1*
X1622217Y5703220D1*
X1627147Y5688057D1*
X1629640Y5672307D1*
Y5656360D1*
X1627147Y5640610D1*
X1622217Y5625447D1*
X1614980Y5611237D1*
X1605607Y5598337D1*
X1594160Y5586927D1*
X1594330Y3096940D1*
X1605607Y3085663D1*
X1614980Y3072763D1*
X1622217Y3058553D1*
X1627147Y3043390D1*
X1629640Y3027640D1*
Y3011693D1*
X1627147Y2995943D1*
X1622217Y2980780D1*
X1614980Y2966570D1*
X1605607Y2953670D1*
X1594330Y2942393D1*
X1581430Y2933020D1*
X1567220Y2925783D1*
X1552057Y2920853D1*
X1536307Y2918360D1*
X1520360D1*
X1504610Y2920853D1*
X1489447Y2925783D1*
X1475237Y2933020D1*
X1462337Y2942393D1*
X1451060Y2953670D1*
X1441687Y2966570D1*
X1434450Y2980780D1*
X1429520Y2995943D1*
X1427027Y3011693D1*
Y3027640D1*
X1429520Y3043390D1*
X1434450Y3058553D1*
X1441687Y3072763D1*
X1451060Y3085663D1*
X1462507Y3097073D1*
X2433333Y2719090D2*
Y2457577D1*
X2302577Y2588333D2*
X2433333D1*
X3274000Y2714090D2*
Y2583333D1*
X3143243D2*
X3274000D1*
X594333Y2055000D2*
Y1922713D1*
Y2055000D2*
X726620D1*
X340333D2*
Y1922743D1*
X5420333Y2055000D2*
Y1922713D1*
X5166333Y2055000D2*
Y1922743D1*
X5034077Y2055000D2*
X5166333D1*
X5034077Y7389000D2*
X5166333D1*
X5420333Y7775257D2*
Y7643000D1*
X5166333Y7775257D2*
Y7643000D1*
X5034077D2*
X5166333D1*
D26*
X2633333Y2588333D3*
D27*
X2433333D3*
D26*
X3874000Y2583333D3*
D27*
X3674000D3*
X3474000D3*
X3274000D3*
D26*
X1589000Y8007667D3*
D27*
Y7357667D3*
D68*
X594333Y2055000D3*
D32*
X340333D3*
X594333Y2309000D3*
X340333D3*
X594333Y2563000D3*
X340333D3*
X594333Y2817000D3*
X340333D3*
X594333Y3071000D3*
X340333D3*
X594333Y3325000D3*
X340333D3*
X594333Y3579000D3*
X340333D3*
X594333Y3833000D3*
X340333D3*
X594333Y4087000D3*
X340333D3*
X594333Y4341000D3*
X340333D3*
X594333Y4595000D3*
X340333D3*
X594333Y4849000D3*
X340333D3*
X594333Y5103000D3*
X340333D3*
X594333Y5357000D3*
X340333D3*
X594333Y5611000D3*
X340333D3*
X594333Y5865000D3*
X340333D3*
X594333Y6119000D3*
X340333D3*
X594333Y6373000D3*
X340333D3*
X594333Y6627000D3*
X340333D3*
X594333Y6881000D3*
X340333D3*
X594333Y7135000D3*
X340333D3*
X594333Y7389000D3*
X340333D3*
X594333Y7643000D3*
X340333D3*
D68*
X5420333Y2055000D3*
D32*
X5166333D3*
X5420333Y2309000D3*
X5166333D3*
X5420333Y2563000D3*
X5166333D3*
X5420333Y2817000D3*
X5166333D3*
X5420333Y3071000D3*
X5166333D3*
X5420333Y3325000D3*
X5166333D3*
X5420333Y3579000D3*
X5166333D3*
X5420333Y3833000D3*
X5166333D3*
X5420333Y4087000D3*
X5166333D3*
X5420333Y4341000D3*
X5166333D3*
X5420333Y4595000D3*
X5166333D3*
X5420333Y4849000D3*
X5166333D3*
X5420333Y5103000D3*
X5166333D3*
X5420333Y5357000D3*
X5166333D3*
X5420333Y5611000D3*
X5166333D3*
X5420333Y5865000D3*
X5166333D3*
X5420333Y6119000D3*
X5166333D3*
X5420333Y6373000D3*
X5166333D3*
X5420333Y6627000D3*
X5166333D3*
X5420333Y6881000D3*
X5166333D3*
X5420333Y7135000D3*
X5166333D3*
X5420333Y7389000D3*
X5166333D3*
X5420333Y7643000D3*
X5166333D3*
M02*
