G04 DipTrace 3.0.0.1*
G04 BottomSilk.gbr*
%MOMM*%
G04 #@! TF.FileFunction,Legend,Bot*
G04 #@! TF.Part,Single*
%ADD63C,0.39216*%
%ADD65C,0.15686*%
%ADD66C,0.31373*%
%ADD67C,0.23529*%
%FSLAX35Y35*%
G04*
G71*
G90*
G75*
G01*
G04 BotSilk*
%LPD*%
X1366777Y2088477D2*
D63*
X1257277D1*
X1221058Y2100550D1*
X1208704Y2112904D1*
X1196631Y2137050D1*
Y2173550D1*
X1208704Y2197696D1*
X1221058Y2210050D1*
X1257277Y2222123D1*
X1366777D1*
Y1966904D1*
X1057554Y2221842D2*
X1093773Y2209769D1*
X1106127Y2185623D1*
Y2161196D1*
X1093773Y2137050D1*
X1069627Y2124696D1*
X1021054Y2112623D1*
X984554Y2100550D1*
X960408Y2076123D1*
X948335Y2051977D1*
Y2015477D1*
X960408Y1991331D1*
X972481Y1978977D1*
X1008981Y1966904D1*
X1057554D1*
X1093773Y1978977D1*
X1106127Y1991331D1*
X1118200Y2015477D1*
Y2051977D1*
X1106127Y2076123D1*
X1081700Y2100550D1*
X1045481Y2112623D1*
X996908Y2124696D1*
X972481Y2137050D1*
X960408Y2161196D1*
Y2185623D1*
X972481Y2209769D1*
X1008981Y2221842D1*
X1057554D1*
X4951652Y2088477D2*
X4842152D1*
X4805933Y2100550D1*
X4793579Y2112904D1*
X4781506Y2137050D1*
Y2173550D1*
X4793579Y2197696D1*
X4805933Y2210050D1*
X4842152Y2222123D1*
X4951652D1*
Y1966904D1*
X4545001Y2137050D2*
X4557355Y2100550D1*
X4581501Y2076123D1*
X4618001Y2064050D1*
X4630074D1*
X4666574Y2076123D1*
X4690720Y2100550D1*
X4703074Y2137050D1*
Y2149123D1*
X4690720Y2185623D1*
X4666574Y2209769D1*
X4630074Y2221842D1*
X4618001D1*
X4581501Y2209769D1*
X4557355Y2185623D1*
X4545001Y2137050D1*
Y2076123D1*
X4557355Y2015477D1*
X4581501Y1978977D1*
X4618001Y1966904D1*
X4642147D1*
X4678647Y1978977D1*
X4690720Y2003404D1*
X3937108Y7040413D2*
D66*
X3859391Y6943155D1*
Y6836238D1*
X3781674Y7040413D2*
X3859391Y6943155D1*
X3563495Y6836238D2*
Y7040413D1*
X3641212Y6836238D1*
X3718929Y7040413D1*
Y6836238D1*
X3432691Y7040413D2*
Y6836238D1*
X3500750Y7040413D2*
X3364633D1*
X2968256Y7011213D2*
X2987573Y7030755D1*
X3016773Y7040413D1*
X3055632D1*
X3084832Y7030755D1*
X3104373Y7011213D1*
Y6991896D1*
X3094490Y6972355D1*
X3084832Y6962696D1*
X3065515Y6953038D1*
X3007115Y6933496D1*
X2987573Y6923838D1*
X2977915Y6913955D1*
X2968256Y6894638D1*
Y6865438D1*
X2987573Y6846121D1*
X3016773Y6836238D1*
X3055632D1*
X3084832Y6846121D1*
X3104373Y6865438D1*
X2837453Y7040413D2*
Y6836238D1*
X2905511Y7040413D2*
X2769394D1*
X2706649D2*
Y6894638D1*
X2696991Y6865438D1*
X2677449Y6846121D1*
X2648249Y6836238D1*
X2628932D1*
X2599732Y6846121D1*
X2580191Y6865438D1*
X2570532Y6894638D1*
Y7040413D1*
X2507787D2*
Y6836238D1*
X2439729D1*
X2410529Y6846121D1*
X2390987Y6865438D1*
X2381329Y6884979D1*
X2371670Y6913955D1*
Y6962696D1*
X2381329Y6991896D1*
X2390987Y7011213D1*
X2410529Y7030755D1*
X2439729Y7040413D1*
X2507787D1*
X2308925D2*
Y6836238D1*
X2187780Y7040413D2*
X2207322Y7030755D1*
X2226639Y7011213D1*
X2236522Y6991896D1*
X2246180Y6962696D1*
Y6913955D1*
X2236522Y6884979D1*
X2226639Y6865438D1*
X2207322Y6846121D1*
X2187780Y6836238D1*
X2148922D1*
X2129605Y6846121D1*
X2110063Y6865438D1*
X2100405Y6884979D1*
X2090746Y6913955D1*
Y6962696D1*
X2100405Y6991896D1*
X2110063Y7011213D1*
X2129605Y7030755D1*
X2148922Y7040413D1*
X2187780D1*
X4476620Y6446977D2*
D67*
Y6293845D1*
X4410920D1*
X4389020Y6301257D1*
X4381776Y6308501D1*
X4374532Y6322989D1*
Y6344889D1*
X4381776Y6359545D1*
X4389020Y6366789D1*
X4410920Y6374033D1*
X4389020Y6381445D1*
X4381776Y6388689D1*
X4374532Y6403177D1*
Y6417833D1*
X4381776Y6432320D1*
X4389020Y6439733D1*
X4410920Y6446977D1*
X4476620D1*
Y6374033D2*
X4410920D1*
X4327473Y6446977D2*
Y6293845D1*
X4261773D1*
X4239873Y6301257D1*
X4232630Y6308501D1*
X4225386Y6322989D1*
Y6344889D1*
X4232630Y6359545D1*
X4239873Y6366789D1*
X4261773Y6374033D1*
X4239873Y6381445D1*
X4232630Y6388689D1*
X4225386Y6403177D1*
Y6417833D1*
X4232630Y6432320D1*
X4239873Y6439733D1*
X4261773Y6446977D1*
X4327473D1*
Y6374033D2*
X4261773D1*
X4178327Y6446977D2*
Y6293845D1*
X4112627D1*
X4090727Y6301257D1*
X4083483Y6308501D1*
X4076239Y6322989D1*
Y6344889D1*
X4083483Y6359545D1*
X4090727Y6366789D1*
X4112627Y6374033D1*
X4090727Y6381445D1*
X4083483Y6388689D1*
X4076239Y6403177D1*
Y6417833D1*
X4083483Y6432320D1*
X4090727Y6439733D1*
X4112627Y6446977D1*
X4178327D1*
Y6374033D2*
X4112627D1*
X3881045D2*
X3815513D1*
X3793613Y6381445D1*
X3786201Y6388689D1*
X3778957Y6403177D1*
Y6417833D1*
X3786201Y6432320D1*
X3793613Y6439733D1*
X3815513Y6446977D1*
X3881045D1*
Y6293845D1*
X3830001Y6374033D2*
X3778957Y6293845D1*
X3680854Y6446977D2*
Y6293845D1*
X3731898Y6446977D2*
X3629810D1*
X3473420Y6410589D2*
X3480664Y6425077D1*
X3495320Y6439733D1*
X3509808Y6446977D1*
X3538952D1*
X3553608Y6439733D1*
X3568096Y6425077D1*
X3575508Y6410589D1*
X3582752Y6388689D1*
Y6352133D1*
X3575508Y6330401D1*
X3568096Y6315745D1*
X3553608Y6301257D1*
X3538952Y6293845D1*
X3509808D1*
X3495320Y6301257D1*
X3480664Y6315745D1*
X3473420Y6330401D1*
X3287886Y6395933D2*
X3295298D1*
X3302542Y6388520D1*
X3309786Y6374033D1*
X3324442Y6337645D1*
X3338930Y6315745D1*
X3353417Y6301089D1*
X3368074Y6293845D1*
X3397217D1*
X3411705Y6301089D1*
X3419117Y6308501D1*
X3426361Y6322989D1*
Y6337645D1*
X3419117Y6352133D1*
X3411705Y6359377D1*
X3360830Y6388520D1*
X3353417Y6395933D1*
X3346174Y6410420D1*
Y6425077D1*
X3353417Y6439564D1*
X3368074Y6446808D1*
X3382561Y6439564D1*
X3389974Y6425077D1*
Y6410420D1*
X3382561Y6388520D1*
X3368074Y6366789D1*
X3331686Y6315745D1*
X3317030Y6301089D1*
X3302542Y6293845D1*
X3287886D1*
X3240827Y6446977D2*
Y6293845D1*
X3175127D1*
X3153227Y6301257D1*
X3145983Y6308501D1*
X3138739Y6322989D1*
Y6344889D1*
X3145983Y6359545D1*
X3153227Y6366789D1*
X3175127Y6374033D1*
X3153227Y6381445D1*
X3145983Y6388689D1*
X3138739Y6403177D1*
Y6417833D1*
X3145983Y6432320D1*
X3153227Y6439733D1*
X3175127Y6446977D1*
X3240827D1*
Y6374033D2*
X3175127D1*
X3091681Y6446977D2*
Y6337645D1*
X3084437Y6315745D1*
X3069781Y6301257D1*
X3047881Y6293845D1*
X3033393D1*
X3011493Y6301257D1*
X2996837Y6315745D1*
X2989593Y6337645D1*
Y6446977D1*
X2942534D2*
X2840446D1*
X2942534Y6293845D1*
X2840446D1*
X2793388Y6446977D2*
X2691300D1*
X2793388Y6293845D1*
X2691300D1*
X2549566Y6446977D2*
X2644241D1*
Y6293845D1*
X2549566D1*
X2644241Y6374033D2*
X2585953D1*
X2502507D2*
X2436975D1*
X2415075Y6381445D1*
X2407663Y6388689D1*
X2400419Y6403177D1*
Y6417833D1*
X2407663Y6432320D1*
X2415075Y6439733D1*
X2436975Y6446977D1*
X2502507D1*
Y6293845D1*
X2451463Y6374033D2*
X2400419Y6293845D1*
X2095893Y6410589D2*
X2103137Y6425077D1*
X2117793Y6439733D1*
X2132281Y6446977D1*
X2161425D1*
X2176081Y6439733D1*
X2190568Y6425077D1*
X2197981Y6410589D1*
X2205225Y6388689D1*
Y6352133D1*
X2197981Y6330401D1*
X2190568Y6315745D1*
X2176081Y6301257D1*
X2161425Y6293845D1*
X2132281D1*
X2117793Y6301257D1*
X2103137Y6315745D1*
X2095893Y6330401D1*
X1932090Y6293845D2*
X1990547Y6446977D1*
X2048834Y6293845D1*
X2026934Y6344889D2*
X1953990D1*
X1885032Y6366789D2*
X1819332D1*
X1797600Y6374033D1*
X1790188Y6381445D1*
X1782944Y6395933D1*
Y6417833D1*
X1790188Y6432320D1*
X1797600Y6439733D1*
X1819332Y6446977D1*
X1885032D1*
Y6293845D1*
X1641210Y6446977D2*
X1735885D1*
Y6293845D1*
X1641210D1*
X1735885Y6374033D2*
X1677597D1*
X1446015Y6446977D2*
X1387727Y6293845D1*
X1329440Y6446977D1*
X1282381Y6417664D2*
X1267725Y6425077D1*
X1245825Y6446808D1*
Y6293845D1*
X760607Y1895998D2*
D65*
X750836Y1900940D1*
X736236Y1915428D1*
Y1813452D1*
X5416607Y1848665D2*
X5406836Y1853607D1*
X5392236Y1868094D1*
Y1766119D1*
M02*
