M48
METRIC,0000.00
T01C0.486
T02C1.0
%
T01
X+002348Y+004509
X+003041Y+003738
X+004098Y+004620
X+004094Y+004822
X+004936Y+004822
X+004923Y+004625
X+001528Y+005664
X+000860Y+006565
X+002882Y+008001
X+001528Y+003020
T02
X+002633Y+002588
X+002433Y+002588
X+003274Y+002583
X+003474Y+002583
X+003674Y+002583
X+003874Y+002583
X+005166Y+002563
X+005166Y+002817
X+005420Y+002817
X+005420Y+002563
X+005420Y+002309
X+005420Y+002055
X+005166Y+002055
X+005166Y+002309
X+005166Y+003071
X+005166Y+003325
X+005420Y+003325
X+005420Y+003071
X+005420Y+003579
X+005166Y+003579
X+005166Y+003833
X+005420Y+003833
X+005420Y+004087
X+005166Y+004087
X+005166Y+004341
X+005420Y+004341
X+005420Y+004595
X+005420Y+004849
X+005166Y+004849
X+005166Y+004595
X+005166Y+005103
X+005420Y+005103
X+005420Y+005357
X+005166Y+005357
X+005166Y+005611
X+005166Y+005865
X+005420Y+005865
X+005420Y+005611
X+005420Y+006119
X+005166Y+006119
X+005166Y+006373
X+005420Y+006373
X+005420Y+006627
X+005166Y+006627
X+005166Y+006881
X+005420Y+006881
X+005420Y+007135
X+005166Y+007135
X+005166Y+007389
X+005420Y+007389
X+005420Y+007643
X+005166Y+007643
X+001589Y+007358
X+001589Y+008008
X+000594Y+007643
X+000340Y+007643
X+000340Y+007389
X+000340Y+007135
X+000340Y+006881
X+000340Y+006627
X+000340Y+006373
X+000340Y+006119
X+000340Y+005865
X+000340Y+005611
X+000594Y+005611
X+000594Y+005865
X+000594Y+006119
X+000594Y+006373
X+000594Y+006627
X+000594Y+006881
X+000594Y+007135
X+000594Y+007389
X+000594Y+005357
X+000594Y+005103
X+000594Y+004849
X+000594Y+004595
X+000340Y+004595
X+000340Y+004849
X+000340Y+005103
X+000340Y+005357
X+000340Y+004341
X+000340Y+004087
X+000594Y+004087
X+000594Y+004341
X+000594Y+003833
X+000594Y+003579
X+000594Y+003325
X+000594Y+003071
X+000594Y+002817
X+000594Y+002563
X+000340Y+002563
X+000340Y+002817
X+000340Y+003071
X+000340Y+003325
X+000340Y+003579
X+000340Y+003833
X+000340Y+002309
X+000340Y+002055
X+000594Y+002055
X+000594Y+002309
T00
M30
