G04 DipTrace 3.0.0.1*
G04 TopAssy.gbr*
%MOMM*%
G04 #@! TF.FileFunction,Drawing,Top*
G04 #@! TF.Part,Single*
%ADD30C,0.127*%
%FSLAX35Y35*%
G04*
G71*
G90*
G75*
G01*
G04 TopAssy*
%LPD*%
X5610833Y1610348D2*
D30*
Y784746D1*
X149833D2*
G03X784948Y150000I634863J117D01*
G01*
X4975719D2*
G03X5610833Y784746I252J634863D01*
G01*
X784948Y150000D2*
X4975719D1*
X149833Y1610348D2*
Y784746D1*
G36*
X568692Y2080146D2*
X619479D1*
Y2029194D1*
X568692D1*
Y2080146D1*
G37*
G36*
X314756D2*
X365543D1*
Y2029194D1*
X314756D1*
Y2080146D1*
G37*
G36*
Y2334044D2*
X365543D1*
Y2283956D1*
X314756D1*
Y2334044D1*
G37*
G36*
X568692D2*
X619479D1*
Y2283956D1*
X568692D1*
Y2334044D1*
G37*
G36*
X314756Y2588806D2*
X365543D1*
Y2537854D1*
X314756D1*
Y2588806D1*
G37*
G36*
X568692D2*
X619479D1*
Y2537854D1*
X568692D1*
Y2588806D1*
G37*
G36*
X314756Y2842705D2*
X365543D1*
Y2791752D1*
X314756D1*
Y2842705D1*
G37*
G36*
Y3096603D2*
X365543D1*
Y3045651D1*
X314756D1*
Y3096603D1*
G37*
G36*
Y3350502D2*
X365543D1*
Y3299549D1*
X314756D1*
Y3350502D1*
G37*
G36*
X568692Y2842705D2*
X619479D1*
Y2791752D1*
X568692D1*
Y2842705D1*
G37*
G36*
Y3096603D2*
X619479D1*
Y3045651D1*
X568692D1*
Y3096603D1*
G37*
G36*
Y3350502D2*
X619479D1*
Y3299549D1*
X568692D1*
Y3350502D1*
G37*
G36*
X314756Y3604400D2*
X365543D1*
Y3553448D1*
X314756D1*
Y3604400D1*
G37*
G36*
X568692D2*
X619479D1*
Y3553448D1*
X568692D1*
Y3604400D1*
G37*
G36*
X314756Y3858298D2*
X365543D1*
Y3807346D1*
X314756D1*
Y3858298D1*
G37*
G36*
X568692D2*
X619479D1*
Y3807346D1*
X568692D1*
Y3858298D1*
G37*
G36*
X314756Y4112197D2*
X365543D1*
Y4061244D1*
X314756D1*
Y4112197D1*
G37*
G36*
X568692D2*
X619479D1*
Y4061244D1*
X568692D1*
Y4112197D1*
G37*
G36*
X314756Y4366095D2*
X365543D1*
Y4316006D1*
X314756D1*
Y4366095D1*
G37*
G36*
X568692D2*
X619479D1*
Y4316006D1*
X568692D1*
Y4366095D1*
G37*
G36*
X314756Y4619994D2*
X365543D1*
Y4569905D1*
X314756D1*
Y4619994D1*
G37*
G36*
X568692D2*
X619479D1*
Y4569905D1*
X568692D1*
Y4619994D1*
G37*
G36*
X314756Y4874756D2*
X365543D1*
Y4823803D1*
X314756D1*
Y4874756D1*
G37*
G36*
X568692D2*
X619479D1*
Y4823803D1*
X568692D1*
Y4874756D1*
G37*
G36*
X314756Y5128654D2*
X365543D1*
Y5077702D1*
X314756D1*
Y5128654D1*
G37*
G36*
X568692D2*
X619479D1*
Y5077702D1*
X568692D1*
Y5128654D1*
G37*
G36*
X314756Y5382552D2*
X365543D1*
Y5331600D1*
X314756D1*
Y5382552D1*
G37*
G36*
X568692D2*
X619479D1*
Y5331600D1*
X568692D1*
Y5382552D1*
G37*
G36*
X314756Y5636451D2*
X365543D1*
Y5585498D1*
X314756D1*
Y5636451D1*
G37*
G36*
X568692D2*
X619479D1*
Y5585498D1*
X568692D1*
Y5636451D1*
G37*
G36*
X314756Y5890349D2*
X365543D1*
Y5839397D1*
X314756D1*
Y5890349D1*
G37*
G36*
X568692D2*
X619479D1*
Y5839397D1*
X568692D1*
Y5890349D1*
G37*
G36*
X314756Y6144248D2*
X365543D1*
Y6093295D1*
X314756D1*
Y6144248D1*
G37*
G36*
X568692D2*
X619479D1*
Y6093295D1*
X568692D1*
Y6144248D1*
G37*
G36*
X314756Y6398146D2*
X365543D1*
Y6347194D1*
X314756D1*
Y6398146D1*
G37*
G36*
X568692D2*
X619479D1*
Y6347194D1*
X568692D1*
Y6398146D1*
G37*
G36*
X314756Y6652044D2*
X365543D1*
Y6601956D1*
X314756D1*
Y6652044D1*
G37*
G36*
X568692D2*
X619479D1*
Y6601956D1*
X568692D1*
Y6652044D1*
G37*
G36*
X314756Y6906806D2*
X365543D1*
Y6855854D1*
X314756D1*
Y6906806D1*
G37*
G36*
X568692D2*
X619479D1*
Y6855854D1*
X568692D1*
Y6906806D1*
G37*
G36*
X314756Y7160705D2*
X365543D1*
Y7109752D1*
X314756D1*
Y7160705D1*
G37*
G36*
X568692D2*
X619479D1*
Y7109752D1*
X568692D1*
Y7160705D1*
G37*
G36*
X314756Y7414603D2*
X365543D1*
Y7363651D1*
X314756D1*
Y7414603D1*
G37*
G36*
X568692D2*
X619479D1*
Y7363651D1*
X568692D1*
Y7414603D1*
G37*
G36*
X314756Y7668502D2*
X365543D1*
Y7617549D1*
X314756D1*
Y7668502D1*
G37*
G36*
X568692D2*
X619479D1*
Y7617549D1*
X568692D1*
Y7668502D1*
G37*
G36*
X5395124Y2080146D2*
X5445911D1*
Y2029194D1*
X5395124D1*
Y2080146D1*
G37*
G36*
X5141187D2*
X5191975D1*
Y2029194D1*
X5141187D1*
Y2080146D1*
G37*
G36*
Y2334044D2*
X5191975D1*
Y2283956D1*
X5141187D1*
Y2334044D1*
G37*
G36*
X5395124D2*
X5445911D1*
Y2283956D1*
X5395124D1*
Y2334044D1*
G37*
G36*
X5141187Y2588806D2*
X5191975D1*
Y2537854D1*
X5141187D1*
Y2588806D1*
G37*
G36*
X5395124D2*
X5445911D1*
Y2537854D1*
X5395124D1*
Y2588806D1*
G37*
G36*
X5141187Y2842705D2*
X5191975D1*
Y2791752D1*
X5141187D1*
Y2842705D1*
G37*
G36*
Y3096603D2*
X5191975D1*
Y3045651D1*
X5141187D1*
Y3096603D1*
G37*
G36*
Y3350502D2*
X5191975D1*
Y3299549D1*
X5141187D1*
Y3350502D1*
G37*
G36*
X5395124Y2842705D2*
X5445911D1*
Y2791752D1*
X5395124D1*
Y2842705D1*
G37*
G36*
Y3096603D2*
X5445911D1*
Y3045651D1*
X5395124D1*
Y3096603D1*
G37*
G36*
Y3350502D2*
X5445911D1*
Y3299549D1*
X5395124D1*
Y3350502D1*
G37*
G36*
X5141187Y3604400D2*
X5191975D1*
Y3553448D1*
X5141187D1*
Y3604400D1*
G37*
G36*
X5395124D2*
X5445911D1*
Y3553448D1*
X5395124D1*
Y3604400D1*
G37*
G36*
X5141187Y3858298D2*
X5191975D1*
Y3807346D1*
X5141187D1*
Y3858298D1*
G37*
G36*
X5395124D2*
X5445911D1*
Y3807346D1*
X5395124D1*
Y3858298D1*
G37*
G36*
X5141187Y4112197D2*
X5191975D1*
Y4061244D1*
X5141187D1*
Y4112197D1*
G37*
G36*
X5395124D2*
X5445911D1*
Y4061244D1*
X5395124D1*
Y4112197D1*
G37*
G36*
X5141187Y4366095D2*
X5191975D1*
Y4316006D1*
X5141187D1*
Y4366095D1*
G37*
G36*
X5395124D2*
X5445911D1*
Y4316006D1*
X5395124D1*
Y4366095D1*
G37*
G36*
X5141187Y4619994D2*
X5191975D1*
Y4569905D1*
X5141187D1*
Y4619994D1*
G37*
G36*
X5395124D2*
X5445911D1*
Y4569905D1*
X5395124D1*
Y4619994D1*
G37*
G36*
X5141187Y4874756D2*
X5191975D1*
Y4823803D1*
X5141187D1*
Y4874756D1*
G37*
G36*
X5395124D2*
X5445911D1*
Y4823803D1*
X5395124D1*
Y4874756D1*
G37*
G36*
X5141187Y5128654D2*
X5191975D1*
Y5077702D1*
X5141187D1*
Y5128654D1*
G37*
G36*
X5395124D2*
X5445911D1*
Y5077702D1*
X5395124D1*
Y5128654D1*
G37*
G36*
X5141187Y5382552D2*
X5191975D1*
Y5331600D1*
X5141187D1*
Y5382552D1*
G37*
G36*
X5395124D2*
X5445911D1*
Y5331600D1*
X5395124D1*
Y5382552D1*
G37*
G36*
X5141187Y5636451D2*
X5191975D1*
Y5585498D1*
X5141187D1*
Y5636451D1*
G37*
G36*
X5395124D2*
X5445911D1*
Y5585498D1*
X5395124D1*
Y5636451D1*
G37*
G36*
X5141187Y5890349D2*
X5191975D1*
Y5839397D1*
X5141187D1*
Y5890349D1*
G37*
G36*
X5395124D2*
X5445911D1*
Y5839397D1*
X5395124D1*
Y5890349D1*
G37*
G36*
X5141187Y6144248D2*
X5191975D1*
Y6093295D1*
X5141187D1*
Y6144248D1*
G37*
G36*
X5395124D2*
X5445911D1*
Y6093295D1*
X5395124D1*
Y6144248D1*
G37*
G36*
X5141187Y6398146D2*
X5191975D1*
Y6347194D1*
X5141187D1*
Y6398146D1*
G37*
G36*
X5395124D2*
X5445911D1*
Y6347194D1*
X5395124D1*
Y6398146D1*
G37*
G36*
X5141187Y6652044D2*
X5191975D1*
Y6601956D1*
X5141187D1*
Y6652044D1*
G37*
G36*
X5395124D2*
X5445911D1*
Y6601956D1*
X5395124D1*
Y6652044D1*
G37*
G36*
X5141187Y6906806D2*
X5191975D1*
Y6855854D1*
X5141187D1*
Y6906806D1*
G37*
G36*
X5395124D2*
X5445911D1*
Y6855854D1*
X5395124D1*
Y6906806D1*
G37*
G36*
X5141187Y7160705D2*
X5191975D1*
Y7109752D1*
X5141187D1*
Y7160705D1*
G37*
G36*
X5395124D2*
X5445911D1*
Y7109752D1*
X5395124D1*
Y7160705D1*
G37*
G36*
X5141187Y7414603D2*
X5191975D1*
Y7363651D1*
X5141187D1*
Y7414603D1*
G37*
G36*
X5395124D2*
X5445911D1*
Y7363651D1*
X5395124D1*
Y7414603D1*
G37*
G36*
X5141187Y7668502D2*
X5191975D1*
Y7617549D1*
X5141187D1*
Y7668502D1*
G37*
G36*
X5395124D2*
X5445911D1*
Y7617549D1*
X5395124D1*
Y7668502D1*
G37*
M02*
