G04 DipTrace 3.0.0.1*
G04 TopPaste.gbr*
%MOMM*%
G04 #@! TF.FileFunction,Paste,Top*
G04 #@! TF.Part,Single*
%ADD41R,0.4X1.8*%
%ADD45R,0.85X0.45*%
%ADD51R,3.0X4.0*%
%ADD53R,2.5X1.4*%
%ADD55R,0.9X0.8*%
%ADD57R,1.3X1.1*%
%ADD59R,1.1X1.3*%
%ADD61R,0.8X0.9*%
%FSLAX35Y35*%
G04*
G71*
G90*
G75*
G01*
G04 TopPaste*
%LPD*%
D61*
X2472000Y4596667D3*
Y4766667D3*
D59*
X4879667Y2767333D3*
X4689667D3*
D57*
X4448333Y2719667D3*
Y2909667D3*
D61*
X4241333Y2713000D3*
Y2883000D3*
D55*
X4890333Y2563333D3*
X4720333D3*
D53*
X2586667Y7988333D3*
Y7708333D3*
D51*
X1523000Y5965333D3*
X4453000D3*
D45*
X1364000Y6778000D3*
Y6588000D3*
X1594000Y6683000D3*
D61*
X3029000Y3378667D3*
Y3548667D3*
X3000333Y4357333D3*
Y4527333D3*
X2651000Y4567667D3*
Y4737667D3*
D55*
X1005667Y4833000D3*
X1175667D3*
D61*
X1102667Y6541667D3*
Y6711667D3*
D41*
X2722000Y4317000D3*
X2595000D3*
X2468000D3*
X2341000D3*
X2214000D3*
X2087000D3*
X1960000D3*
X1833000D3*
Y3377000D3*
X1960000D3*
X2087000D3*
X2214000D3*
X2341000D3*
X2468000D3*
X2595000D3*
X2722000D3*
M02*
